<svg xmlns="http://www.w3.org/2000/svg" width="363.5" height="142.5" viewBox="0 -1 363.5 142.5"><path fill="#1D1D1B" d="M167.2 106.1h-9.6l-3-9.6H138l-3 9.6h-9.6l13.5-45h14.8l13.5 45zM141 86.8h10.7l-5.3-16.1-5.4 16.1z"/><path fill="#1D70B7" d="M180.1 61v45h-9.6V61h9.6z"/><path fill="#1D1D1B" d="M215.4 78.7v9.6h-19.3V106h-9.6V61h28.9v9.6h-19.3v8h19.3v.1zm6.5-17.7h13.5L246 88.4 256.6 61h13.5v45h-9.6V78.7L250.2 106h-8.4l-10.3-27.3V106h-9.6V61zm70.7 29h-6.4v16.1h-9.6V61h19.3c8.6 0 12.9 4.3 12.9 12.9v3.2c0 5.3-2 9-5.9 11.1l5.9 17.8H299l-6.4-16zm-6.4-19.3v9.6h9.6c2.1 0 3.2-1.1 3.2-3.2v-3.2c0-2.1-1.1-3.2-3.2-3.2h-9.6zm28.9-9.7h13.5l10.6 27.3L349.8 61h13.5v45h-9.6V78.7L343.4 106H335l-10.3-27.3V106h-9.6V61z"/><g fill="#1D70B7"><circle cx="50.6" cy="32" r="1.6"/><path d="M63.5 73.7c0 .9-.7 1.6-1.6 1.6s-1.6-.7-1.6-1.6c0-.9.7-1.6 1.6-1.6s1.6.7 1.6 1.6zm3.8 0c0 .9-.7 1.6-1.6 1.6-.9 0-1.6-.7-1.6-1.6 0-.9.7-1.6 1.6-1.6.9 0 1.6.7 1.6 1.6z"/><circle cx="61.9" cy="77.5" r="1.6"/><path d="M67.3 77.5c0 .9-.7 1.6-1.6 1.6-.9 0-1.6-.7-1.6-1.6s.7-1.6 1.6-1.6c.9 0 1.6.7 1.6 1.6zm-3.8 3.8c0 .9-.7 1.6-1.6 1.6s-1.6-.7-1.6-1.6c0-.9.7-1.6 1.6-1.6s1.6.7 1.6 1.6zm3.8 0c0 .9-.7 1.6-1.6 1.6-.9 0-1.6-.7-1.6-1.6 0-.9.7-1.6 1.6-1.6.9 0 1.6.7 1.6 1.6zm7.5-15.2c0 .9-.7 1.6-1.6 1.6-.9 0-1.6-.7-1.6-1.6s.7-1.6 1.6-1.6c.9 0 1.6.7 1.6 1.6z"/><circle cx="77" cy="66.1" r="1.6"/><path d="M74.8 69.9c0 .9-.7 1.6-1.6 1.6-.9 0-1.6-.7-1.6-1.6s.7-1.6 1.6-1.6c.9 0 1.6.7 1.6 1.6zm3.8 0c0 .9-.7 1.6-1.6 1.6s-1.6-.7-1.6-1.6.7-1.6 1.6-1.6 1.6.7 1.6 1.6zm-3.8 3.8c0 .9-.7 1.6-1.6 1.6-.9 0-1.6-.7-1.6-1.6 0-.9.7-1.6 1.6-1.6.9 0 1.6.7 1.6 1.6zm3.8 0c0 .9-.7 1.6-1.6 1.6s-1.6-.7-1.6-1.6c0-.9.7-1.6 1.6-1.6s1.6.7 1.6 1.6zm-3.8 3.8c0 .9-.7 1.6-1.6 1.6-.9 0-1.6-.7-1.6-1.6s.7-1.6 1.6-1.6c.9 0 1.6.7 1.6 1.6z"/><circle cx="77" cy="77.5" r="1.6"/><path d="M74.8 81.3c0 .9-.7 1.6-1.6 1.6-.9 0-1.6-.7-1.6-1.6 0-.9.7-1.6 1.6-1.6.9 0 1.6.7 1.6 1.6zm3.8 0c0 .9-.7 1.6-1.6 1.6s-1.6-.7-1.6-1.6c0-.9.7-1.6 1.6-1.6s1.6.7 1.6 1.6zm7.5-22.8c0 .9-.7 1.6-1.6 1.6s-1.6-.7-1.6-1.6.7-1.6 1.6-1.6 1.6.8 1.6 1.6zm3.8 0c0 .9-.7 1.6-1.6 1.6-.9 0-1.6-.7-1.6-1.6s.7-1.6 1.6-1.6c.9 0 1.6.8 1.6 1.6z"/><circle cx="84.6" cy="62.3" r="1.6"/><circle cx="88.3" cy="62.3" r="1.6"/><circle cx="84.6" cy="66.1" r="1.6"/><circle cx="88.3" cy="66.1" r="1.6"/><path d="M86.1 69.9c0 .9-.7 1.6-1.6 1.6s-1.6-.7-1.6-1.6.7-1.6 1.6-1.6 1.6.7 1.6 1.6zm3.8 0c0 .9-.7 1.6-1.6 1.6-.9 0-1.6-.7-1.6-1.6s.7-1.6 1.6-1.6c.9 0 1.6.7 1.6 1.6zm-3.8 3.8c0 .9-.7 1.6-1.6 1.6s-1.6-.7-1.6-1.6c0-.9.7-1.6 1.6-1.6s1.6.7 1.6 1.6zm3.8 0c0 .9-.7 1.6-1.6 1.6-.9 0-1.6-.7-1.6-1.6 0-.9.7-1.6 1.6-1.6.9 0 1.6.7 1.6 1.6z"/><circle cx="84.6" cy="77.5" r="1.6"/><circle cx="88.3" cy="77.5" r="1.6"/><path d="M86.1 81.3c0 .9-.7 1.6-1.6 1.6s-1.6-.7-1.6-1.6c0-.9.7-1.6 1.6-1.6s1.6.7 1.6 1.6zm3.8 0c0 .9-.7 1.6-1.6 1.6-.9 0-1.6-.7-1.6-1.6 0-.9.7-1.6 1.6-1.6.9 0 1.6.7 1.6 1.6zM97.5 51c0 .9-.7 1.6-1.6 1.6s-1.6-.7-1.6-1.6.7-1.6 1.6-1.6c.8 0 1.6.7 1.6 1.6zm3.7 0c0 .9-.7 1.6-1.6 1.6S98 51.9 98 51s.7-1.6 1.6-1.6 1.6.7 1.6 1.6zm-3.7 3.7c0 .9-.7 1.6-1.6 1.6s-1.6-.7-1.6-1.6c0-.9.7-1.6 1.6-1.6.8.1 1.6.8 1.6 1.6zm3.7 0c0 .9-.7 1.6-1.6 1.6s-1.6-.7-1.6-1.6c0-.9.7-1.6 1.6-1.6.9.1 1.6.8 1.6 1.6zm-3.7 3.8c0 .9-.7 1.6-1.6 1.6s-1.6-.7-1.6-1.6.7-1.6 1.6-1.6c.8 0 1.6.8 1.6 1.6zm3.7 0c0 .9-.7 1.6-1.6 1.6s-1.6-.7-1.6-1.6.7-1.6 1.6-1.6 1.6.8 1.6 1.6z"/><circle cx="95.9" cy="62.3" r="1.6"/><path d="M101.2 62.3c0 .9-.7 1.6-1.6 1.6s-1.6-.7-1.6-1.6c0-.9.7-1.6 1.6-1.6s1.6.7 1.6 1.6zm-3.7 3.8c0 .9-.7 1.6-1.6 1.6s-1.6-.7-1.6-1.6.7-1.6 1.6-1.6c.8 0 1.6.7 1.6 1.6zm3.7 0c0 .9-.7 1.6-1.6 1.6S98 67 98 66.1s.7-1.6 1.6-1.6 1.6.7 1.6 1.6zm-3.7 3.8c0 .9-.7 1.6-1.6 1.6s-1.6-.7-1.6-1.6.7-1.6 1.6-1.6c.8 0 1.6.7 1.6 1.6zm3.7 0c0 .9-.7 1.6-1.6 1.6s-1.6-.7-1.6-1.6.7-1.6 1.6-1.6 1.6.7 1.6 1.6zm-3.7 3.8c0 .9-.7 1.6-1.6 1.6s-1.6-.7-1.6-1.6c0-.9.7-1.6 1.6-1.6.8 0 1.6.7 1.6 1.6zm3.7 0c0 .9-.7 1.6-1.6 1.6s-1.6-.7-1.6-1.6c0-.9.7-1.6 1.6-1.6s1.6.7 1.6 1.6z"/><circle cx="95.9" cy="77.5" r="1.6"/><path d="M101.2 77.5c0 .9-.7 1.6-1.6 1.6s-1.6-.7-1.6-1.6.7-1.6 1.6-1.6 1.6.7 1.6 1.6zm-3.7 3.8c0 .9-.7 1.6-1.6 1.6s-1.6-.7-1.6-1.6c0-.9.7-1.6 1.6-1.6.8 0 1.6.7 1.6 1.6zm3.7 0c0 .9-.7 1.6-1.6 1.6s-1.6-.7-1.6-1.6c0-.9.7-1.6 1.6-1.6s1.6.7 1.6 1.6zM37.1 1.7c0 .9-.7 1.6-1.6 1.6s-1.6-.7-1.6-1.6c0-.9.7-1.6 1.6-1.6s1.6.7 1.6 1.6zm3.8 0c0 .9-.7 1.6-1.6 1.6-.9 0-1.6-.7-1.6-1.6 0-.9.7-1.6 1.6-1.6.9 0 1.6.7 1.6 1.6zm3.7 0c0 .9-.7 1.6-1.6 1.6s-1.6-.7-1.6-1.6c0-.9.7-1.6 1.6-1.6s1.6.7 1.6 1.6zm3.8 0c0 .9-.7 1.6-1.6 1.6-.9 0-1.6-.7-1.6-1.6 0-.9.7-1.6 1.6-1.6.9 0 1.6.7 1.6 1.6zm3.8 0c0 .9-.7 1.6-1.6 1.6S49 2.6 49 1.7c0-.9.7-1.6 1.6-1.6s1.6.7 1.6 1.6zm3.8 0c0 .9-.7 1.6-1.6 1.6s-1.6-.7-1.6-1.6c0-.9.7-1.6 1.6-1.6S56 .8 56 1.7zM25.8 5.5c0 .9-.7 1.6-1.6 1.6-.9 0-1.6-.7-1.6-1.6s.7-1.6 1.6-1.6c.9 0 1.6.7 1.6 1.6z"/><circle cx="28" cy="5.5" r="1.6"/><circle cx="31.8" cy="5.5" r="1.6"/><path d="M37.1 5.5c0 .9-.7 1.6-1.6 1.6s-1.6-.7-1.6-1.6.7-1.6 1.6-1.6 1.6.7 1.6 1.6zm3.8 0c0 .9-.7 1.6-1.6 1.6-.9 0-1.6-.7-1.6-1.6s.7-1.6 1.6-1.6c.9 0 1.6.7 1.6 1.6zm3.7 0c0 .9-.7 1.6-1.6 1.6s-1.6-.7-1.6-1.6.7-1.6 1.6-1.6 1.6.7 1.6 1.6z"/><circle cx="50.6" cy="5.5" r="1.6"/><path d="M56 5.5c0 .9-.7 1.6-1.6 1.6s-1.6-.7-1.6-1.6.7-1.6 1.6-1.6 1.6.7 1.6 1.6z"/><circle cx="16.7" cy="9.3" r="1.6"/><path d="M22 9.3c0 .9-.7 1.6-1.6 1.6s-1.6-.7-1.6-1.6c0-.9.7-1.6 1.6-1.6s1.6.7 1.6 1.6zm3.8 0c0 .9-.7 1.6-1.6 1.6-.9 0-1.6-.7-1.6-1.6 0-.9.7-1.6 1.6-1.6.9 0 1.6.7 1.6 1.6z"/><circle cx="28" cy="9.3" r="1.6"/><circle cx="31.8" cy="9.3" r="1.6"/><path d="M37.1 9.3c0 .9-.7 1.6-1.6 1.6s-1.6-.7-1.6-1.6c0-.9.7-1.6 1.6-1.6s1.6.7 1.6 1.6zm3.8 0c0 .9-.7 1.6-1.6 1.6-.9 0-1.6-.7-1.6-1.6 0-.9.7-1.6 1.6-1.6.9 0 1.6.7 1.6 1.6zm3.7 0c0 .9-.7 1.6-1.6 1.6s-1.6-.7-1.6-1.6c0-.9.7-1.6 1.6-1.6s1.6.7 1.6 1.6z"/><circle cx="50.6" cy="9.3" r="1.6"/><path d="M56 9.3c0 .9-.7 1.6-1.6 1.6s-1.6-.7-1.6-1.6c0-.9.7-1.6 1.6-1.6s1.6.7 1.6 1.6z"/><circle cx="61.9" cy="9.3" r="1.6"/><path d="M74.8 9.3c0 .9-.7 1.6-1.6 1.6-.9 0-1.6-.7-1.6-1.6 0-.9.7-1.6 1.6-1.6.9 0 1.6.7 1.6 1.6z"/><circle cx="77" cy="9.3" r="1.6"/><circle cx="16.7" cy="13.1" r="1.6"/><path d="M22 13.1c0 .9-.7 1.6-1.6 1.6s-1.6-.7-1.6-1.6.7-1.6 1.6-1.6 1.6.7 1.6 1.6zm3.8 0c0 .9-.7 1.6-1.6 1.6-.9 0-1.6-.7-1.6-1.6s.7-1.6 1.6-1.6c.9 0 1.6.7 1.6 1.6z"/><circle cx="28" cy="13.1" r="1.6"/><circle cx="31.8" cy="13.1" r="1.6"/><path d="M37.1 13.1c0 .9-.7 1.6-1.6 1.6s-1.6-.7-1.6-1.6.7-1.6 1.6-1.6 1.6.7 1.6 1.6zm3.8 0c0 .9-.7 1.6-1.6 1.6-.9 0-1.6-.7-1.6-1.6s.7-1.6 1.6-1.6c.9 0 1.6.7 1.6 1.6zm3.7 0c0 .9-.7 1.6-1.6 1.6s-1.6-.7-1.6-1.6.7-1.6 1.6-1.6 1.6.7 1.6 1.6z"/><circle cx="50.6" cy="13.1" r="1.6"/><path d="M56 13.1c0 .9-.7 1.6-1.6 1.6s-1.6-.7-1.6-1.6.7-1.6 1.6-1.6 1.6.7 1.6 1.6z"/><circle cx="61.9" cy="13.1" r="1.6"/><path d="M67.3 13.1c0 .9-.7 1.6-1.6 1.6-.9 0-1.6-.7-1.6-1.6s.7-1.6 1.6-1.6c.9 0 1.6.7 1.6 1.6zm3.8 0c0 .9-.7 1.6-1.6 1.6s-1.6-.7-1.6-1.6.7-1.6 1.6-1.6c.8 0 1.6.7 1.6 1.6zm3.7 0c0 .9-.7 1.6-1.6 1.6-.9 0-1.6-.7-1.6-1.6s.7-1.6 1.6-1.6c.9 0 1.6.7 1.6 1.6z"/><circle cx="77" cy="13.1" r="1.6"/><circle cx="80.8" cy="13.1" r="1.6"/><circle cx="84.6" cy="13.1" r="1.6"/><circle cx="88.3" cy="13.1" r="1.6"/><path d="M93.7 13.1c0 .9-.7 1.6-1.6 1.6s-1.6-.7-1.6-1.6.7-1.6 1.6-1.6 1.6.7 1.6 1.6z"/><circle cx="95.9" cy="13.1" r="1.6"/><path d="M101.2 13.1c0 .9-.7 1.6-1.6 1.6S98 14 98 13.1s.7-1.6 1.6-1.6 1.6.7 1.6 1.6z"/><circle cx="16.7" cy="16.9" r="1.6"/><path d="M22 16.9c0 .9-.7 1.6-1.6 1.6s-1.6-.7-1.6-1.6.7-1.6 1.6-1.6 1.6.7 1.6 1.6zm3.8 0c0 .9-.7 1.6-1.6 1.6-.9 0-1.6-.7-1.6-1.6s.7-1.6 1.6-1.6c.9 0 1.6.7 1.6 1.6z"/><circle cx="28" cy="16.9" r="1.6"/><circle cx="31.8" cy="16.9" r="1.6"/><path d="M37.1 16.9c0 .9-.7 1.6-1.6 1.6s-1.6-.7-1.6-1.6.7-1.6 1.6-1.6 1.6.7 1.6 1.6zm3.8 0c0 .9-.7 1.6-1.6 1.6-.9 0-1.6-.7-1.6-1.6s.7-1.6 1.6-1.6c.9 0 1.6.7 1.6 1.6zm3.7 0c0 .9-.7 1.6-1.6 1.6s-1.6-.7-1.6-1.6.7-1.6 1.6-1.6 1.6.7 1.6 1.6z"/><circle cx="46.8" cy="16.9" r="1.6"/><path d="M59.7 16.9c0 .9-.7 1.6-1.6 1.6s-1.6-.7-1.6-1.6.7-1.6 1.6-1.6 1.6.7 1.6 1.6z"/><circle cx="61.9" cy="16.9" r="1.6"/><path d="M67.3 16.9c0 .9-.7 1.6-1.6 1.6-.9 0-1.6-.7-1.6-1.6s.7-1.6 1.6-1.6c.9 0 1.6.7 1.6 1.6zm3.8 0c0 .9-.7 1.6-1.6 1.6s-1.6-.7-1.6-1.6.7-1.6 1.6-1.6c.8 0 1.6.7 1.6 1.6zm3.7 0c0 .9-.7 1.6-1.6 1.6-.9 0-1.6-.7-1.6-1.6s.7-1.6 1.6-1.6c.9 0 1.6.7 1.6 1.6z"/><circle cx="77" cy="16.9" r="1.6"/><circle cx="80.8" cy="16.9" r="1.6"/><circle cx="84.6" cy="16.9" r="1.6"/><circle cx="88.3" cy="16.9" r="1.6"/><path d="M93.7 16.9c0 .9-.7 1.6-1.6 1.6s-1.6-.7-1.6-1.6.7-1.6 1.6-1.6 1.6.7 1.6 1.6z"/><circle cx="95.9" cy="16.9" r="1.6"/><path d="M101.2 16.9c0 .9-.7 1.6-1.6 1.6s-1.6-.7-1.6-1.6.7-1.6 1.6-1.6 1.6.7 1.6 1.6zm-90.5 3.8c0 .9-.7 1.6-1.6 1.6s-1.6-.7-1.6-1.6c0-.9.7-1.6 1.6-1.6s1.6.7 1.6 1.6zm3.8 0c0 .9-.7 1.6-1.6 1.6s-1.6-.7-1.6-1.6c0-.9.7-1.6 1.6-1.6s1.6.7 1.6 1.6zm3.8 0c0 .9-.7 1.6-1.6 1.6-.9 0-1.6-.7-1.6-1.6 0-.9.7-1.6 1.6-1.6.9 0 1.6.7 1.6 1.6zm3.7 0c0 .9-.7 1.6-1.6 1.6s-1.6-.7-1.6-1.6c0-.9.7-1.6 1.6-1.6s1.6.7 1.6 1.6zm3.8 0c0 .9-.7 1.6-1.6 1.6-.9 0-1.6-.7-1.6-1.6 0-.9.7-1.6 1.6-1.6.9 0 1.6.7 1.6 1.6zm3.8 0c0 .9-.7 1.6-1.6 1.6s-1.6-.7-1.6-1.6c0-.9.7-1.6 1.6-1.6s1.6.7 1.6 1.6zm3.7 0c0 .9-.7 1.6-1.6 1.6-.9 0-1.6-.7-1.6-1.6 0-.9.7-1.6 1.6-1.6.9 0 1.6.7 1.6 1.6zm3.8 0c0 .9-.7 1.6-1.6 1.6s-1.6-.7-1.6-1.6c0-.9.7-1.6 1.6-1.6s1.6.7 1.6 1.6zm3.8 0c0 .9-.7 1.6-1.6 1.6-.9 0-1.6-.7-1.6-1.6 0-.9.7-1.6 1.6-1.6.9 0 1.6.7 1.6 1.6zm3.7 0c0 .9-.7 1.6-1.6 1.6s-1.6-.7-1.6-1.6c0-.9.7-1.6 1.6-1.6s1.6.7 1.6 1.6zm3.8 0c0 .9-.7 1.6-1.6 1.6-.9 0-1.6-.7-1.6-1.6 0-.9.7-1.6 1.6-1.6.9 0 1.6.7 1.6 1.6zm11.3 0c0 .9-.7 1.6-1.6 1.6s-1.6-.7-1.6-1.6c0-.9.7-1.6 1.6-1.6s1.6.7 1.6 1.6zm3.8 0c0 .9-.7 1.6-1.6 1.6s-1.6-.7-1.6-1.6c0-.9.7-1.6 1.6-1.6s1.6.7 1.6 1.6zm3.8 0c0 .9-.7 1.6-1.6 1.6-.9 0-1.6-.7-1.6-1.6 0-.9.7-1.6 1.6-1.6.9 0 1.6.7 1.6 1.6zm3.8 0c0 .9-.7 1.6-1.6 1.6s-1.6-.7-1.6-1.6c0-.9.7-1.6 1.6-1.6.8 0 1.6.7 1.6 1.6zm3.7 0c0 .9-.7 1.6-1.6 1.6-.9 0-1.6-.7-1.6-1.6 0-.9.7-1.6 1.6-1.6.9 0 1.6.7 1.6 1.6zm3.8 0c0 .9-.7 1.6-1.6 1.6s-1.6-.7-1.6-1.6c0-.9.7-1.6 1.6-1.6s1.6.7 1.6 1.6zm3.8 0c0 .9-.7 1.6-1.6 1.6-.9 0-1.6-.7-1.6-1.6 0-.9.7-1.6 1.6-1.6.9 0 1.6.7 1.6 1.6zm3.7 0c0 .9-.7 1.6-1.6 1.6s-1.6-.7-1.6-1.6c0-.9.7-1.6 1.6-1.6s1.6.7 1.6 1.6zm3.8 0c0 .9-.7 1.6-1.6 1.6-.9 0-1.6-.7-1.6-1.6 0-.9.7-1.6 1.6-1.6.9 0 1.6.7 1.6 1.6zm3.8 0c0 .9-.7 1.6-1.6 1.6s-1.6-.7-1.6-1.6c0-.9.7-1.6 1.6-1.6s1.6.7 1.6 1.6zm3.8 0c0 .9-.7 1.6-1.6 1.6s-1.6-.7-1.6-1.6c0-.9.7-1.6 1.6-1.6.8 0 1.6.7 1.6 1.6zm3.7 0c0 .9-.7 1.6-1.6 1.6s-1.6-.7-1.6-1.6c0-.9.7-1.6 1.6-1.6s1.6.7 1.6 1.6zm-90.5 3.7c0 .9-.7 1.6-1.6 1.6s-1.6-.7-1.6-1.6.7-1.6 1.6-1.6c.9.1 1.6.8 1.6 1.6zm3.8 0c0 .9-.7 1.6-1.6 1.6s-1.6-.7-1.6-1.6.7-1.6 1.6-1.6 1.6.8 1.6 1.6zm3.8 0c0 .9-.7 1.6-1.6 1.6-.9 0-1.6-.7-1.6-1.6s.7-1.6 1.6-1.6c.9 0 1.6.8 1.6 1.6zm3.7 0c0 .9-.7 1.6-1.6 1.6s-1.6-.7-1.6-1.6.7-1.6 1.6-1.6c.9.1 1.6.8 1.6 1.6zm3.8 0c0 .9-.7 1.6-1.6 1.6-.9 0-1.6-.7-1.6-1.6s.7-1.6 1.6-1.6c.9.1 1.6.8 1.6 1.6zm3.8 0c0 .9-.7 1.6-1.6 1.6s-1.6-.7-1.6-1.6.7-1.6 1.6-1.6c.9.1 1.6.8 1.6 1.6zm3.7 0c0 .9-.7 1.6-1.6 1.6-.9 0-1.6-.7-1.6-1.6s.7-1.6 1.6-1.6c.9.1 1.6.8 1.6 1.6zm3.8 0c0 .9-.7 1.6-1.6 1.6s-1.6-.7-1.6-1.6.7-1.6 1.6-1.6c.9.1 1.6.8 1.6 1.6zm3.8 0c0 .9-.7 1.6-1.6 1.6-.9 0-1.6-.7-1.6-1.6s.7-1.6 1.6-1.6c.9.1 1.6.8 1.6 1.6zm3.7 0c0 .9-.7 1.6-1.6 1.6s-1.6-.7-1.6-1.6.7-1.6 1.6-1.6c.9.1 1.6.8 1.6 1.6zm3.8 0c0 .9-.7 1.6-1.6 1.6-.9 0-1.6-.7-1.6-1.6s.7-1.6 1.6-1.6c.9.1 1.6.8 1.6 1.6zm11.3 0c0 .9-.7 1.6-1.6 1.6s-1.6-.7-1.6-1.6.7-1.6 1.6-1.6c.9.1 1.6.8 1.6 1.6zm3.8 0c0 .9-.7 1.6-1.6 1.6s-1.6-.7-1.6-1.6.7-1.6 1.6-1.6c.9.1 1.6.8 1.6 1.6zm3.8 0c0 .9-.7 1.6-1.6 1.6-.9 0-1.6-.7-1.6-1.6s.7-1.6 1.6-1.6c.9.1 1.6.8 1.6 1.6zm3.8 0c0 .9-.7 1.6-1.6 1.6s-1.6-.7-1.6-1.6.7-1.6 1.6-1.6c.8.1 1.6.8 1.6 1.6zm3.7 0c0 .9-.7 1.6-1.6 1.6-.9 0-1.6-.7-1.6-1.6s.7-1.6 1.6-1.6c.9.1 1.6.8 1.6 1.6zm3.8 0c0 .9-.7 1.6-1.6 1.6s-1.6-.7-1.6-1.6.7-1.6 1.6-1.6c.9.1 1.6.8 1.6 1.6zm3.8 0c0 .9-.7 1.6-1.6 1.6-.9 0-1.6-.7-1.6-1.6s.7-1.6 1.6-1.6c.9.1 1.6.8 1.6 1.6zm3.7 0c0 .9-.7 1.6-1.6 1.6s-1.6-.7-1.6-1.6.7-1.6 1.6-1.6c.9.1 1.6.8 1.6 1.6zm3.8 0c0 .9-.7 1.6-1.6 1.6-.9 0-1.6-.7-1.6-1.6s.7-1.6 1.6-1.6c.9 0 1.6.8 1.6 1.6zm3.8 0c0 .9-.7 1.6-1.6 1.6s-1.6-.7-1.6-1.6.7-1.6 1.6-1.6c.9.1 1.6.8 1.6 1.6zm3.8 0c0 .9-.7 1.6-1.6 1.6s-1.6-.7-1.6-1.6.7-1.6 1.6-1.6c.8.1 1.6.8 1.6 1.6zm3.7 0c0 .9-.7 1.6-1.6 1.6s-1.6-.7-1.6-1.6.7-1.6 1.6-1.6c.9.1 1.6.8 1.6 1.6zM6.9 28.2c0 .9-.7 1.6-1.6 1.6-.9 0-1.6-.7-1.6-1.6 0-.9.7-1.6 1.6-1.6.9 0 1.6.8 1.6 1.6zm3.8 0c0 .9-.7 1.6-1.6 1.6s-1.6-.7-1.6-1.6c0-.9.7-1.6 1.6-1.6s1.6.8 1.6 1.6zm3.8 0c0 .9-.7 1.6-1.6 1.6s-1.6-.7-1.6-1.6c0-.9.7-1.6 1.6-1.6s1.6.8 1.6 1.6zm3.8 0c0 .9-.7 1.6-1.6 1.6-.9 0-1.6-.7-1.6-1.6 0-.9.7-1.6 1.6-1.6.9 0 1.6.8 1.6 1.6zm3.7 0c0 .9-.7 1.6-1.6 1.6s-1.6-.7-1.6-1.6c0-.9.7-1.6 1.6-1.6s1.6.8 1.6 1.6zm3.8 0c0 .9-.7 1.6-1.6 1.6-.9 0-1.6-.7-1.6-1.6 0-.9.7-1.6 1.6-1.6.9 0 1.6.8 1.6 1.6zm3.8 0c0 .9-.7 1.6-1.6 1.6s-1.6-.7-1.6-1.6c0-.9.7-1.6 1.6-1.6s1.6.8 1.6 1.6zm3.7 0c0 .9-.7 1.6-1.6 1.6-.9 0-1.6-.7-1.6-1.6 0-.9.7-1.6 1.6-1.6.9 0 1.6.8 1.6 1.6zm3.8 0c0 .9-.7 1.6-1.6 1.6s-1.6-.7-1.6-1.6c0-.9.7-1.6 1.6-1.6s1.6.8 1.6 1.6zm3.8 0c0 .9-.7 1.6-1.6 1.6-.9 0-1.6-.7-1.6-1.6 0-.9.7-1.6 1.6-1.6.9 0 1.6.8 1.6 1.6zm3.7 0c0 .9-.7 1.6-1.6 1.6s-1.6-.7-1.6-1.6c0-.9.7-1.6 1.6-1.6s1.6.8 1.6 1.6zm3.8 0c0 .9-.7 1.6-1.6 1.6-.9 0-1.6-.7-1.6-1.6 0-.9.7-1.6 1.6-1.6.9 0 1.6.8 1.6 1.6zm11.3 0c0 .9-.7 1.6-1.6 1.6s-1.6-.7-1.6-1.6c0-.9.7-1.6 1.6-1.6s1.6.8 1.6 1.6zm3.8 0c0 .9-.7 1.6-1.6 1.6s-1.6-.7-1.6-1.6c0-.9.7-1.6 1.6-1.6s1.6.8 1.6 1.6zm3.8 0c0 .9-.7 1.6-1.6 1.6-.9 0-1.6-.7-1.6-1.6 0-.9.7-1.6 1.6-1.6.9 0 1.6.8 1.6 1.6zm3.8 0c0 .9-.7 1.6-1.6 1.6s-1.6-.7-1.6-1.6c0-.9.7-1.6 1.6-1.6.8 0 1.6.8 1.6 1.6zm3.7 0c0 .9-.7 1.6-1.6 1.6-.9 0-1.6-.7-1.6-1.6 0-.9.7-1.6 1.6-1.6.9 0 1.6.8 1.6 1.6zm3.8 0c0 .9-.7 1.6-1.6 1.6s-1.6-.7-1.6-1.6c0-.9.7-1.6 1.6-1.6s1.6.8 1.6 1.6zm3.8 0c0 .9-.7 1.6-1.6 1.6-.9 0-1.6-.7-1.6-1.6 0-.9.7-1.6 1.6-1.6.9 0 1.6.8 1.6 1.6zm3.7 0c0 .9-.7 1.6-1.6 1.6s-1.6-.7-1.6-1.6c0-.9.7-1.6 1.6-1.6s1.6.8 1.6 1.6zm3.8 0c0 .9-.7 1.6-1.6 1.6-.9 0-1.6-.7-1.6-1.6 0-.9.7-1.6 1.6-1.6.9 0 1.6.8 1.6 1.6zm3.8 0c0 .9-.7 1.6-1.6 1.6s-1.6-.7-1.6-1.6c0-.9.7-1.6 1.6-1.6s1.6.8 1.6 1.6zm3.8 0c0 .9-.7 1.6-1.6 1.6s-1.6-.7-1.6-1.6c0-.9.7-1.6 1.6-1.6.8 0 1.6.8 1.6 1.6zm3.7 0c0 .9-.7 1.6-1.6 1.6s-1.6-.7-1.6-1.6c0-.9.7-1.6 1.6-1.6s1.6.8 1.6 1.6zm3.8 0c0 .9-.7 1.6-1.6 1.6s-1.6-.7-1.6-1.6c0-.9.7-1.6 1.6-1.6s1.6.8 1.6 1.6z"/><circle cx="1.6" cy="32" r="1.6"/><path d="M6.9 32c0 .9-.7 1.6-1.6 1.6-.9 0-1.6-.7-1.6-1.6s.7-1.6 1.6-1.6c.9 0 1.6.7 1.6 1.6z"/><circle cx="9.1" cy="32" r="1.6"/><circle cx="12.9" cy="32" r="1.6"/><circle cx="16.7" cy="32" r="1.6"/><path d="M22 32c0 .9-.7 1.6-1.6 1.6s-1.6-.7-1.6-1.6.7-1.6 1.6-1.6 1.6.7 1.6 1.6zm3.8 0c0 .9-.7 1.6-1.6 1.6-.9 0-1.6-.7-1.6-1.6s.7-1.6 1.6-1.6c.9 0 1.6.7 1.6 1.6z"/><circle cx="28" cy="32" r="1.6"/><circle cx="31.8" cy="32" r="1.6"/><path d="M37.1 32c0 .9-.7 1.6-1.6 1.6s-1.6-.7-1.6-1.6.7-1.6 1.6-1.6 1.6.7 1.6 1.6zm3.8 0c0 .9-.7 1.6-1.6 1.6-.9 0-1.6-.7-1.6-1.6s.7-1.6 1.6-1.6c.9 0 1.6.7 1.6 1.6zm3.7 0c0 .9-.7 1.6-1.6 1.6s-1.6-.7-1.6-1.6.7-1.6 1.6-1.6 1.6.7 1.6 1.6z"/><circle cx="46.8" cy="32" r="1.6"/><path d="M56 32c0 .9-.7 1.6-1.6 1.6s-1.6-.7-1.6-1.6.7-1.6 1.6-1.6 1.6.7 1.6 1.6zm3.7 0c0 .9-.7 1.6-1.6 1.6s-1.6-.7-1.6-1.6.7-1.6 1.6-1.6 1.6.7 1.6 1.6z"/><circle cx="61.9" cy="32" r="1.6"/><path d="M67.3 32c0 .9-.7 1.6-1.6 1.6-.9 0-1.6-.7-1.6-1.6s.7-1.6 1.6-1.6c.9 0 1.6.7 1.6 1.6zm3.8 0c0 .9-.7 1.6-1.6 1.6s-1.6-.7-1.6-1.6.7-1.6 1.6-1.6c.8 0 1.6.7 1.6 1.6zm3.7 0c0 .9-.7 1.6-1.6 1.6-.9 0-1.6-.7-1.6-1.6s.7-1.6 1.6-1.6c.9 0 1.6.7 1.6 1.6z"/><circle cx="77" cy="32" r="1.6"/><circle cx="80.8" cy="32" r="1.6"/><circle cx="84.6" cy="32" r="1.6"/><circle cx="88.3" cy="32" r="1.6"/><path d="M93.7 32c0 .9-.7 1.6-1.6 1.6s-1.6-.7-1.6-1.6.7-1.6 1.6-1.6 1.6.7 1.6 1.6z"/><circle cx="95.9" cy="32" r="1.6"/><path d="M101.2 32c0 .9-.7 1.6-1.6 1.6S98 32.9 98 32s.7-1.6 1.6-1.6 1.6.7 1.6 1.6z"/><circle cx="103.4" cy="32" r="1.6"/><path d="M6.9 35.8c0 .9-.7 1.6-1.6 1.6-.9 0-1.6-.7-1.6-1.6 0-.9.7-1.6 1.6-1.6.9 0 1.6.7 1.6 1.6zm3.8 0c0 .9-.7 1.6-1.6 1.6s-1.6-.7-1.6-1.6c0-.9.7-1.6 1.6-1.6s1.6.7 1.6 1.6zm3.8 0c0 .9-.7 1.6-1.6 1.6s-1.6-.7-1.6-1.6c0-.9.7-1.6 1.6-1.6s1.6.7 1.6 1.6zm3.8 0c0 .9-.7 1.6-1.6 1.6-.9 0-1.6-.7-1.6-1.6 0-.9.7-1.6 1.6-1.6.9 0 1.6.7 1.6 1.6zm3.7 0c0 .9-.7 1.6-1.6 1.6s-1.6-.7-1.6-1.6c0-.9.7-1.6 1.6-1.6s1.6.7 1.6 1.6zm3.8 0c0 .9-.7 1.6-1.6 1.6-.9 0-1.6-.7-1.6-1.6 0-.9.7-1.6 1.6-1.6.9 0 1.6.7 1.6 1.6zm3.8 0c0 .9-.7 1.6-1.6 1.6s-1.6-.7-1.6-1.6c0-.9.7-1.6 1.6-1.6s1.6.7 1.6 1.6zm3.7 0c0 .9-.7 1.6-1.6 1.6-.9 0-1.6-.7-1.6-1.6 0-.9.7-1.6 1.6-1.6.9 0 1.6.7 1.6 1.6zm3.8 0c0 .9-.7 1.6-1.6 1.6s-1.6-.7-1.6-1.6c0-.9.7-1.6 1.6-1.6s1.6.7 1.6 1.6zm3.8 0c0 .9-.7 1.6-1.6 1.6-.9 0-1.6-.7-1.6-1.6 0-.9.7-1.6 1.6-1.6.9 0 1.6.7 1.6 1.6zm3.7 0c0 .9-.7 1.6-1.6 1.6s-1.6-.7-1.6-1.6c0-.9.7-1.6 1.6-1.6s1.6.7 1.6 1.6zm3.8 0c0 .9-.7 1.6-1.6 1.6-.9 0-1.6-.7-1.6-1.6 0-.9.7-1.6 1.6-1.6.9 0 1.6.7 1.6 1.6zm3.8 0c0 .9-.7 1.6-1.6 1.6s-1.6-.7-1.6-1.6c0-.9.7-1.6 1.6-1.6s1.6.7 1.6 1.6zm3.8 0c0 .9-.7 1.6-1.6 1.6s-1.6-.7-1.6-1.6c0-.9.7-1.6 1.6-1.6s1.6.7 1.6 1.6zm3.7 0c0 .9-.7 1.6-1.6 1.6s-1.6-.7-1.6-1.6c0-.9.7-1.6 1.6-1.6s1.6.7 1.6 1.6zm3.8 0c0 .9-.7 1.6-1.6 1.6s-1.6-.7-1.6-1.6c0-.9.7-1.6 1.6-1.6s1.6.7 1.6 1.6zm3.8 0c0 .9-.7 1.6-1.6 1.6-.9 0-1.6-.7-1.6-1.6 0-.9.7-1.6 1.6-1.6.9 0 1.6.7 1.6 1.6zm3.8 0c0 .9-.7 1.6-1.6 1.6s-1.6-.7-1.6-1.6c0-.9.7-1.6 1.6-1.6.8 0 1.6.7 1.6 1.6zm3.7 0c0 .9-.7 1.6-1.6 1.6-.9 0-1.6-.7-1.6-1.6 0-.9.7-1.6 1.6-1.6.9 0 1.6.7 1.6 1.6zm3.8 0c0 .9-.7 1.6-1.6 1.6s-1.6-.7-1.6-1.6c0-.9.7-1.6 1.6-1.6s1.6.7 1.6 1.6zm3.8 0c0 .9-.7 1.6-1.6 1.6-.9 0-1.6-.7-1.6-1.6 0-.9.7-1.6 1.6-1.6.9 0 1.6.7 1.6 1.6zm3.7 0c0 .9-.7 1.6-1.6 1.6s-1.6-.7-1.6-1.6c0-.9.7-1.6 1.6-1.6s1.6.7 1.6 1.6zm3.8 0c0 .9-.7 1.6-1.6 1.6-.9 0-1.6-.7-1.6-1.6 0-.9.7-1.6 1.6-1.6.9 0 1.6.7 1.6 1.6zm3.8 0c0 .9-.7 1.6-1.6 1.6s-1.6-.7-1.6-1.6c0-.9.7-1.6 1.6-1.6s1.6.7 1.6 1.6zm3.8 0c0 .9-.7 1.6-1.6 1.6s-1.6-.7-1.6-1.6c0-.9.7-1.6 1.6-1.6.8 0 1.6.7 1.6 1.6zm3.7 0c0 .9-.7 1.6-1.6 1.6s-1.6-.7-1.6-1.6c0-.9.7-1.6 1.6-1.6s1.6.7 1.6 1.6zm3.8 0c0 .9-.7 1.6-1.6 1.6s-1.6-.7-1.6-1.6c0-.9.7-1.6 1.6-1.6s1.6.7 1.6 1.6zM6.9 39.6c0 .9-.7 1.6-1.6 1.6-.9 0-1.6-.7-1.6-1.6S4.4 38 5.3 38c.9 0 1.6.7 1.6 1.6zm3.8 0c0 .9-.7 1.6-1.6 1.6s-1.6-.7-1.6-1.6.7-1.6 1.6-1.6 1.6.7 1.6 1.6zm3.8 0c0 .9-.7 1.6-1.6 1.6s-1.6-.7-1.6-1.6.7-1.6 1.6-1.6 1.6.7 1.6 1.6zm3.8 0c0 .9-.7 1.6-1.6 1.6-.9 0-1.6-.7-1.6-1.6s.7-1.6 1.6-1.6c.9 0 1.6.7 1.6 1.6zm3.7 0c0 .9-.7 1.6-1.6 1.6s-1.6-.7-1.6-1.6.7-1.6 1.6-1.6 1.6.7 1.6 1.6zm3.8 0c0 .9-.7 1.6-1.6 1.6-.9 0-1.6-.7-1.6-1.6s.7-1.6 1.6-1.6c.9 0 1.6.7 1.6 1.6zm3.8 0c0 .9-.7 1.6-1.6 1.6s-1.6-.7-1.6-1.6.7-1.6 1.6-1.6 1.6.7 1.6 1.6zm3.7 0c0 .9-.7 1.6-1.6 1.6-.9 0-1.6-.7-1.6-1.6s.7-1.6 1.6-1.6c.9 0 1.6.7 1.6 1.6zm3.8 0c0 .9-.7 1.6-1.6 1.6s-1.6-.7-1.6-1.6.7-1.6 1.6-1.6 1.6.7 1.6 1.6zm3.8 0c0 .9-.7 1.6-1.6 1.6-.9 0-1.6-.7-1.6-1.6s.7-1.6 1.6-1.6c.9 0 1.6.7 1.6 1.6zm3.7 0c0 .9-.7 1.6-1.6 1.6s-1.6-.7-1.6-1.6.7-1.6 1.6-1.6 1.6.7 1.6 1.6zm3.8 0c0 .9-.7 1.6-1.6 1.6-.9 0-1.6-.7-1.6-1.6s.7-1.6 1.6-1.6c.9 0 1.6.7 1.6 1.6zm3.8 0c0 .9-.7 1.6-1.6 1.6s-1.6-.7-1.6-1.6.7-1.6 1.6-1.6 1.6.7 1.6 1.6zm3.8 0c0 .9-.7 1.6-1.6 1.6s-1.6-.7-1.6-1.6.7-1.6 1.6-1.6 1.6.7 1.6 1.6zm3.7 0c0 .9-.7 1.6-1.6 1.6s-1.6-.7-1.6-1.6.7-1.6 1.6-1.6 1.6.7 1.6 1.6zm3.8 0c0 .9-.7 1.6-1.6 1.6s-1.6-.7-1.6-1.6.7-1.6 1.6-1.6 1.6.7 1.6 1.6zm3.8 0c0 .9-.7 1.6-1.6 1.6-.9 0-1.6-.7-1.6-1.6s.7-1.6 1.6-1.6c.9 0 1.6.7 1.6 1.6zm3.8 0c0 .9-.7 1.6-1.6 1.6s-1.6-.7-1.6-1.6.7-1.6 1.6-1.6c.8 0 1.6.7 1.6 1.6zm3.7 0c0 .9-.7 1.6-1.6 1.6-.9 0-1.6-.7-1.6-1.6s.7-1.6 1.6-1.6c.9 0 1.6.7 1.6 1.6zm3.8 0c0 .9-.7 1.6-1.6 1.6s-1.6-.7-1.6-1.6.7-1.6 1.6-1.6 1.6.7 1.6 1.6zm3.8 0c0 .9-.7 1.6-1.6 1.6-.9 0-1.6-.7-1.6-1.6s.7-1.6 1.6-1.6c.9 0 1.6.7 1.6 1.6zm3.7 0c0 .9-.7 1.6-1.6 1.6s-1.6-.7-1.6-1.6.7-1.6 1.6-1.6 1.6.7 1.6 1.6zm3.8 0c0 .9-.7 1.6-1.6 1.6-.9 0-1.6-.7-1.6-1.6s.7-1.6 1.6-1.6c.9 0 1.6.7 1.6 1.6zm3.8 0c0 .9-.7 1.6-1.6 1.6s-1.6-.7-1.6-1.6.7-1.6 1.6-1.6 1.6.7 1.6 1.6zm3.8 0c0 .9-.7 1.6-1.6 1.6s-1.6-.7-1.6-1.6.7-1.6 1.6-1.6c.8 0 1.6.7 1.6 1.6zm3.7 0c0 .9-.7 1.6-1.6 1.6s-1.6-.7-1.6-1.6.7-1.6 1.6-1.6 1.6.7 1.6 1.6zm3.8 0c0 .9-.7 1.6-1.6 1.6s-1.6-.7-1.6-1.6.7-1.6 1.6-1.6 1.6.7 1.6 1.6zm3.8 0c0 .9-.7 1.6-1.6 1.6-.9 0-1.6-.7-1.6-1.6s.7-1.6 1.6-1.6c.9 0 1.6.7 1.6 1.6zM6.9 43.4c0 .9-.7 1.6-1.6 1.6-.9 0-1.6-.7-1.6-1.6s.7-1.6 1.6-1.6c.9 0 1.6.7 1.6 1.6z"/><circle cx="9.1" cy="43.4" r="1.6"/><circle cx="12.9" cy="43.4" r="1.6"/><circle cx="16.7" cy="43.4" r="1.6"/><path d="M22 43.4c0 .9-.7 1.6-1.6 1.6s-1.6-.7-1.6-1.6.7-1.6 1.6-1.6 1.6.7 1.6 1.6zm3.8 0c0 .9-.7 1.6-1.6 1.6-.9 0-1.6-.7-1.6-1.6s.7-1.6 1.6-1.6c.9 0 1.6.7 1.6 1.6z"/><circle cx="28" cy="43.4" r="1.6"/><circle cx="31.8" cy="43.4" r="1.6"/><path d="M37.1 43.4c0 .9-.7 1.6-1.6 1.6s-1.6-.7-1.6-1.6.7-1.6 1.6-1.6 1.6.7 1.6 1.6zm3.8 0c0 .9-.7 1.6-1.6 1.6-.9 0-1.6-.7-1.6-1.6s.7-1.6 1.6-1.6c.9 0 1.6.7 1.6 1.6zm3.7 0c0 .9-.7 1.6-1.6 1.6s-1.6-.7-1.6-1.6.7-1.6 1.6-1.6 1.6.7 1.6 1.6z"/><circle cx="46.8" cy="43.4" r="1.6"/><circle cx="50.6" cy="43.4" r="1.6"/><path d="M56 43.4c0 .9-.7 1.6-1.6 1.6s-1.6-.7-1.6-1.6.7-1.6 1.6-1.6 1.6.7 1.6 1.6zm3.7 0c0 .9-.7 1.6-1.6 1.6s-1.6-.7-1.6-1.6.7-1.6 1.6-1.6 1.6.7 1.6 1.6z"/><circle cx="61.9" cy="43.4" r="1.6"/><path d="M67.3 43.4c0 .9-.7 1.6-1.6 1.6-.9 0-1.6-.7-1.6-1.6s.7-1.6 1.6-1.6c.9 0 1.6.7 1.6 1.6zm3.8 0c0 .9-.7 1.6-1.6 1.6s-1.6-.7-1.6-1.6.7-1.6 1.6-1.6c.8 0 1.6.7 1.6 1.6zm3.7 0c0 .9-.7 1.6-1.6 1.6-.9 0-1.6-.7-1.6-1.6s.7-1.6 1.6-1.6c.9 0 1.6.7 1.6 1.6z"/><circle cx="77" cy="43.4" r="1.6"/><circle cx="80.8" cy="43.4" r="1.6"/><circle cx="84.6" cy="43.4" r="1.6"/><circle cx="88.3" cy="43.4" r="1.6"/><path d="M93.7 43.4c0 .9-.7 1.6-1.6 1.6s-1.6-.7-1.6-1.6.7-1.6 1.6-1.6 1.6.7 1.6 1.6z"/><circle cx="95.9" cy="43.4" r="1.6"/><path d="M101.2 43.4c0 .9-.7 1.6-1.6 1.6s-1.6-.7-1.6-1.6.7-1.6 1.6-1.6 1.6.7 1.6 1.6z"/><circle cx="103.4" cy="43.4" r="1.6"/><path d="M108.8 43.4c0 .9-.7 1.6-1.6 1.6-.9 0-1.6-.7-1.6-1.6s.7-1.6 1.6-1.6c.9 0 1.6.7 1.6 1.6zm3.7 0c0 .9-.7 1.6-1.6 1.6s-1.6-.7-1.6-1.6.7-1.6 1.6-1.6 1.6.7 1.6 1.6z"/><circle cx="1.6" cy="47.2" r="1.6"/><path d="M6.9 47.2c0 .9-.7 1.6-1.6 1.6-.9 0-1.6-.7-1.6-1.6 0-.9.7-1.6 1.6-1.6.9 0 1.6.7 1.6 1.6z"/><circle cx="9.1" cy="47.2" r="1.6"/><circle cx="12.9" cy="47.2" r="1.6"/><circle cx="16.7" cy="47.2" r="1.6"/><path d="M22 47.2c0 .9-.7 1.6-1.6 1.6s-1.6-.7-1.6-1.6c0-.9.7-1.6 1.6-1.6s1.6.7 1.6 1.6zm3.8 0c0 .9-.7 1.6-1.6 1.6-.9 0-1.6-.7-1.6-1.6 0-.9.7-1.6 1.6-1.6.9 0 1.6.7 1.6 1.6z"/><circle cx="28" cy="47.2" r="1.6"/><circle cx="31.8" cy="47.2" r="1.6"/><path d="M37.1 47.2c0 .9-.7 1.6-1.6 1.6s-1.6-.7-1.6-1.6c0-.9.7-1.6 1.6-1.6s1.6.7 1.6 1.6zm3.8 0c0 .9-.7 1.6-1.6 1.6-.9 0-1.6-.7-1.6-1.6 0-.9.7-1.6 1.6-1.6.9 0 1.6.7 1.6 1.6zm3.7 0c0 .9-.7 1.6-1.6 1.6s-1.6-.7-1.6-1.6c0-.9.7-1.6 1.6-1.6s1.6.7 1.6 1.6z"/><circle cx="46.8" cy="47.2" r="1.6"/><circle cx="50.6" cy="47.2" r="1.6"/><path d="M56 47.2c0 .9-.7 1.6-1.6 1.6s-1.6-.7-1.6-1.6c0-.9.7-1.6 1.6-1.6s1.6.7 1.6 1.6zm3.7 0c0 .9-.7 1.6-1.6 1.6s-1.6-.7-1.6-1.6c0-.9.7-1.6 1.6-1.6s1.6.7 1.6 1.6z"/><circle cx="61.9" cy="47.2" r="1.6"/><path d="M67.3 47.2c0 .9-.7 1.6-1.6 1.6-.9 0-1.6-.7-1.6-1.6 0-.9.7-1.6 1.6-1.6.9 0 1.6.7 1.6 1.6zm3.8 0c0 .9-.7 1.6-1.6 1.6s-1.6-.7-1.6-1.6c0-.9.7-1.6 1.6-1.6.8 0 1.6.7 1.6 1.6zm3.7 0c0 .9-.7 1.6-1.6 1.6-.9 0-1.6-.7-1.6-1.6 0-.9.7-1.6 1.6-1.6.9 0 1.6.7 1.6 1.6z"/><circle cx="77" cy="47.2" r="1.6"/><circle cx="80.8" cy="47.2" r="1.6"/><circle cx="84.6" cy="47.2" r="1.6"/><circle cx="88.3" cy="47.2" r="1.6"/><path d="M93.7 47.2c0 .9-.7 1.6-1.6 1.6s-1.6-.7-1.6-1.6c0-.9.7-1.6 1.6-1.6s1.6.7 1.6 1.6z"/><circle cx="95.9" cy="47.2" r="1.6"/><path d="M101.2 47.2c0 .9-.7 1.6-1.6 1.6s-1.6-.7-1.6-1.6c0-.9.7-1.6 1.6-1.6s1.6.7 1.6 1.6z"/><circle cx="103.4" cy="47.2" r="1.6"/><path d="M108.8 47.2c0 .9-.7 1.6-1.6 1.6-.9 0-1.6-.7-1.6-1.6 0-.9.7-1.6 1.6-1.6.9 0 1.6.7 1.6 1.6zm3.7 0c0 .9-.7 1.6-1.6 1.6s-1.6-.7-1.6-1.6c0-.9.7-1.6 1.6-1.6s1.6.7 1.6 1.6zm3.8 0c0 .9-.7 1.6-1.6 1.6-.9 0-1.6-.7-1.6-1.6 0-.9.7-1.6 1.6-1.6.9 0 1.6.7 1.6 1.6zM6.9 51c0 .9-.7 1.6-1.6 1.6-.9 0-1.6-.7-1.6-1.6s.7-1.6 1.6-1.6c.9 0 1.6.7 1.6 1.6z"/><circle cx="9.1" cy="51" r="1.6"/><circle cx="12.9" cy="51" r="1.6"/><circle cx="16.7" cy="51" r="1.6"/><path d="M22 51c0 .9-.7 1.6-1.6 1.6s-1.6-.7-1.6-1.6.7-1.6 1.6-1.6 1.6.7 1.6 1.6zm3.8 0c0 .9-.7 1.6-1.6 1.6-.9 0-1.6-.7-1.6-1.6s.7-1.6 1.6-1.6c.9 0 1.6.7 1.6 1.6z"/><circle cx="28" cy="51" r="1.6"/><circle cx="31.8" cy="51" r="1.6"/><path d="M37.1 51c0 .9-.7 1.6-1.6 1.6s-1.6-.7-1.6-1.6.7-1.6 1.6-1.6 1.6.7 1.6 1.6zm3.8 0c0 .9-.7 1.6-1.6 1.6-.9 0-1.6-.7-1.6-1.6s.7-1.6 1.6-1.6c.9 0 1.6.7 1.6 1.6zm3.7 0c0 .9-.7 1.6-1.6 1.6s-1.6-.7-1.6-1.6.7-1.6 1.6-1.6 1.6.7 1.6 1.6z"/><circle cx="46.8" cy="51" r="1.6"/><circle cx="50.6" cy="51" r="1.6"/><path d="M56 51c0 .9-.7 1.6-1.6 1.6s-1.6-.7-1.6-1.6.7-1.6 1.6-1.6 1.6.7 1.6 1.6zm3.7 0c0 .9-.7 1.6-1.6 1.6s-1.6-.7-1.6-1.6.7-1.6 1.6-1.6 1.6.7 1.6 1.6z"/><circle cx="61.9" cy="51" r="1.6"/><path d="M67.3 51c0 .9-.7 1.6-1.6 1.6-.9 0-1.6-.7-1.6-1.6s.7-1.6 1.6-1.6c.9 0 1.6.7 1.6 1.6zm3.8 0c0 .9-.7 1.6-1.6 1.6s-1.6-.7-1.6-1.6.7-1.6 1.6-1.6c.8 0 1.6.7 1.6 1.6zm3.7 0c0 .9-.7 1.6-1.6 1.6-.9 0-1.6-.7-1.6-1.6s.7-1.6 1.6-1.6c.9 0 1.6.7 1.6 1.6z"/><circle cx="77" cy="51" r="1.6"/><path d="M82.4 51c0 .9-.7 1.6-1.6 1.6-.9 0-1.6-.7-1.6-1.6s.7-1.6 1.6-1.6c.9 0 1.6.7 1.6 1.6z"/><circle cx="84.6" cy="51" r="1.6"/><circle cx="88.3" cy="51" r="1.6"/><path d="M93.7 51c0 .9-.7 1.6-1.6 1.6s-1.6-.7-1.6-1.6.7-1.6 1.6-1.6 1.6.7 1.6 1.6z"/><circle cx="103.4" cy="51" r="1.6"/><path d="M108.8 51c0 .9-.7 1.6-1.6 1.6-.9 0-1.6-.7-1.6-1.6s.7-1.6 1.6-1.6c.9 0 1.6.7 1.6 1.6zm3.7 0c0 .9-.7 1.6-1.6 1.6s-1.6-.7-1.6-1.6.7-1.6 1.6-1.6 1.6.7 1.6 1.6zm3.8 0c0 .9-.7 1.6-1.6 1.6-.9 0-1.6-.7-1.6-1.6s.7-1.6 1.6-1.6c.9 0 1.6.7 1.6 1.6zm11.3 0c0 .9-.7 1.6-1.6 1.6s-1.6-.7-1.6-1.6.7-1.6 1.6-1.6 1.6.7 1.6 1.6zm3.8 0c0 .9-.7 1.6-1.6 1.6-.9 0-1.6-.7-1.6-1.6s.7-1.6 1.6-1.6c.9 0 1.6.7 1.6 1.6zm3.8 0c0 .9-.7 1.6-1.6 1.6s-1.6-.7-1.6-1.6.7-1.6 1.6-1.6 1.6.7 1.6 1.6z"/><circle cx="9.1" cy="54.7" r="1.6"/><circle cx="12.9" cy="54.7" r="1.6"/><circle cx="16.7" cy="54.7" r="1.6"/><path d="M22 54.7c0 .9-.7 1.6-1.6 1.6s-1.6-.7-1.6-1.6c0-.9.7-1.6 1.6-1.6.9.1 1.6.8 1.6 1.6zm3.8 0c0 .9-.7 1.6-1.6 1.6-.9 0-1.6-.7-1.6-1.6 0-.9.7-1.6 1.6-1.6.9.1 1.6.8 1.6 1.6z"/><circle cx="28" cy="54.7" r="1.6"/><circle cx="31.8" cy="54.7" r="1.6"/><path d="M37.1 54.7c0 .9-.7 1.6-1.6 1.6s-1.6-.7-1.6-1.6c0-.9.7-1.6 1.6-1.6.9.1 1.6.8 1.6 1.6zm3.8 0c0 .9-.7 1.6-1.6 1.6-.9 0-1.6-.7-1.6-1.6 0-.9.7-1.6 1.6-1.6.9.1 1.6.8 1.6 1.6zm3.7 0c0 .9-.7 1.6-1.6 1.6s-1.6-.7-1.6-1.6c0-.9.7-1.6 1.6-1.6.9.1 1.6.8 1.6 1.6z"/><circle cx="46.8" cy="54.7" r="1.6"/><circle cx="50.6" cy="54.7" r="1.6"/><path d="M56 54.7c0 .9-.7 1.6-1.6 1.6s-1.6-.7-1.6-1.6c0-.9.7-1.6 1.6-1.6.9.1 1.6.8 1.6 1.6zm3.7 0c0 .9-.7 1.6-1.6 1.6s-1.6-.7-1.6-1.6c0-.9.7-1.6 1.6-1.6.9.1 1.6.8 1.6 1.6z"/><circle cx="61.9" cy="54.7" r="1.6"/><path d="M67.3 54.7c0 .9-.7 1.6-1.6 1.6-.9 0-1.6-.7-1.6-1.6 0-.9.7-1.6 1.6-1.6.9.1 1.6.8 1.6 1.6zm3.8 0c0 .9-.7 1.6-1.6 1.6s-1.6-.7-1.6-1.6c0-.9.7-1.6 1.6-1.6.8.1 1.6.8 1.6 1.6zm3.7 0c0 .9-.7 1.6-1.6 1.6-.9 0-1.6-.7-1.6-1.6 0-.9.7-1.6 1.6-1.6.9.1 1.6.8 1.6 1.6z"/><circle cx="77" cy="54.7" r="1.6"/><path d="M82.4 54.7c0 .9-.7 1.6-1.6 1.6-.9 0-1.6-.7-1.6-1.6 0-.9.7-1.6 1.6-1.6.9.1 1.6.8 1.6 1.6z"/><circle cx="84.6" cy="54.7" r="1.6"/><circle cx="88.3" cy="54.7" r="1.6"/><path d="M93.7 54.7c0 .9-.7 1.6-1.6 1.6s-1.6-.7-1.6-1.6c0-.9.7-1.6 1.6-1.6.9.1 1.6.8 1.6 1.6z"/><circle cx="103.4" cy="54.7" r="1.6"/><path d="M108.8 54.7c0 .9-.7 1.6-1.6 1.6-.9 0-1.6-.7-1.6-1.6 0-.9.7-1.6 1.6-1.6.9.1 1.6.8 1.6 1.6zm3.7 0c0 .9-.7 1.6-1.6 1.6s-1.6-.7-1.6-1.6c0-.9.7-1.6 1.6-1.6.9.1 1.6.8 1.6 1.6zm3.8 0c0 .9-.7 1.6-1.6 1.6-.9 0-1.6-.7-1.6-1.6 0-.9.7-1.6 1.6-1.6.9.1 1.6.8 1.6 1.6z"/><circle cx="118.5" cy="54.7" r="1.6"/><circle cx="122.3" cy="54.7" r="1.6"/><path d="M127.6 54.7c0 .9-.7 1.6-1.6 1.6s-1.6-.7-1.6-1.6c0-.9.7-1.6 1.6-1.6.9.1 1.6.8 1.6 1.6zm3.8 0c0 .9-.7 1.6-1.6 1.6-.9 0-1.6-.7-1.6-1.6 0-.9.7-1.6 1.6-1.6.9.1 1.6.8 1.6 1.6zM14.5 58.5c0 .9-.7 1.6-1.6 1.6s-1.6-.7-1.6-1.6.7-1.6 1.6-1.6 1.6.8 1.6 1.6zm3.8 0c0 .9-.7 1.6-1.6 1.6-.9 0-1.6-.7-1.6-1.6s.7-1.6 1.6-1.6c.9 0 1.6.8 1.6 1.6zm3.7 0c0 .9-.7 1.6-1.6 1.6s-1.6-.7-1.6-1.6.7-1.6 1.6-1.6 1.6.8 1.6 1.6zm3.8 0c0 .9-.7 1.6-1.6 1.6-.9 0-1.6-.7-1.6-1.6s.7-1.6 1.6-1.6c.9 0 1.6.8 1.6 1.6zm3.8 0c0 .9-.7 1.6-1.6 1.6s-1.6-.7-1.6-1.6.7-1.6 1.6-1.6 1.6.8 1.6 1.6zm3.7 0c0 .9-.7 1.6-1.6 1.6-.9 0-1.6-.7-1.6-1.6s.7-1.6 1.6-1.6c.9 0 1.6.8 1.6 1.6zm3.8 0c0 .9-.7 1.6-1.6 1.6s-1.6-.7-1.6-1.6.7-1.6 1.6-1.6 1.6.8 1.6 1.6zm3.8 0c0 .9-.7 1.6-1.6 1.6-.9 0-1.6-.7-1.6-1.6s.7-1.6 1.6-1.6c.9 0 1.6.8 1.6 1.6zm3.7 0c0 .9-.7 1.6-1.6 1.6s-1.6-.7-1.6-1.6.7-1.6 1.6-1.6 1.6.8 1.6 1.6zm3.8 0c0 .9-.7 1.6-1.6 1.6-.9 0-1.6-.7-1.6-1.6s.7-1.6 1.6-1.6c.9 0 1.6.8 1.6 1.6zm3.8 0c0 .9-.7 1.6-1.6 1.6s-1.6-.7-1.6-1.6.7-1.6 1.6-1.6 1.6.8 1.6 1.6zm3.8 0c0 .9-.7 1.6-1.6 1.6s-1.6-.7-1.6-1.6.7-1.6 1.6-1.6 1.6.8 1.6 1.6zm3.7 0c0 .9-.7 1.6-1.6 1.6s-1.6-.7-1.6-1.6.7-1.6 1.6-1.6 1.6.8 1.6 1.6zm3.8 0c0 .9-.7 1.6-1.6 1.6s-1.6-.7-1.6-1.6.7-1.6 1.6-1.6 1.6.8 1.6 1.6zm3.8 0c0 .9-.7 1.6-1.6 1.6-.9 0-1.6-.7-1.6-1.6s.7-1.6 1.6-1.6c.9 0 1.6.8 1.6 1.6zm3.8 0c0 .9-.7 1.6-1.6 1.6s-1.6-.7-1.6-1.6.7-1.6 1.6-1.6c.8 0 1.6.8 1.6 1.6zm3.7 0c0 .9-.7 1.6-1.6 1.6-.9 0-1.6-.7-1.6-1.6s.7-1.6 1.6-1.6c.9 0 1.6.8 1.6 1.6zm3.8 0c0 .9-.7 1.6-1.6 1.6s-1.6-.7-1.6-1.6.7-1.6 1.6-1.6 1.6.8 1.6 1.6zm3.8 0c0 .9-.7 1.6-1.6 1.6-.9 0-1.6-.7-1.6-1.6s.7-1.6 1.6-1.6c.9 0 1.6.8 1.6 1.6zm11.3 0c0 .9-.7 1.6-1.6 1.6s-1.6-.7-1.6-1.6.7-1.6 1.6-1.6 1.6.8 1.6 1.6zm11.3 0c0 .9-.7 1.6-1.6 1.6s-1.6-.7-1.6-1.6.7-1.6 1.6-1.6 1.6.8 1.6 1.6zm3.8 0c0 .9-.7 1.6-1.6 1.6-.9 0-1.6-.7-1.6-1.6s.7-1.6 1.6-1.6c.9 0 1.6.8 1.6 1.6zm3.7 0c0 .9-.7 1.6-1.6 1.6s-1.6-.7-1.6-1.6.7-1.6 1.6-1.6 1.6.8 1.6 1.6zm3.8 0c0 .9-.7 1.6-1.6 1.6-.9 0-1.6-.7-1.6-1.6s.7-1.6 1.6-1.6c.9 0 1.6.8 1.6 1.6zm3.8 0c0 .9-.7 1.6-1.6 1.6s-1.6-.7-1.6-1.6.7-1.6 1.6-1.6 1.6.8 1.6 1.6zm3.7 0c0 .9-.7 1.6-1.6 1.6-.9 0-1.6-.7-1.6-1.6s.7-1.6 1.6-1.6c.9 0 1.6.8 1.6 1.6zm3.8 0c0 .9-.7 1.6-1.6 1.6s-1.6-.7-1.6-1.6.7-1.6 1.6-1.6 1.6.8 1.6 1.6zm3.8 0c0 .9-.7 1.6-1.6 1.6-.9 0-1.6-.7-1.6-1.6s.7-1.6 1.6-1.6c.9 0 1.6.8 1.6 1.6zM22 62.3c0 .9-.7 1.6-1.6 1.6s-1.6-.7-1.6-1.6c0-.9.7-1.6 1.6-1.6s1.6.7 1.6 1.6zm3.8 0c0 .9-.7 1.6-1.6 1.6-.9 0-1.6-.7-1.6-1.6 0-.9.7-1.6 1.6-1.6.9 0 1.6.7 1.6 1.6z"/><circle cx="28" cy="62.3" r="1.6"/><circle cx="31.8" cy="62.3" r="1.6"/><circle cx="46.8" cy="62.3" r="1.6"/><circle cx="50.6" cy="62.3" r="1.6"/><path d="M56 62.3c0 .9-.7 1.6-1.6 1.6s-1.6-.7-1.6-1.6c0-.9.7-1.6 1.6-1.6s1.6.7 1.6 1.6zm3.7 0c0 .9-.7 1.6-1.6 1.6s-1.6-.7-1.6-1.6c0-.9.7-1.6 1.6-1.6s1.6.7 1.6 1.6z"/><circle cx="61.9" cy="62.3" r="1.6"/><path d="M67.3 62.3c0 .9-.7 1.6-1.6 1.6-.9 0-1.6-.7-1.6-1.6 0-.9.7-1.6 1.6-1.6.9 0 1.6.7 1.6 1.6zm3.8 0c0 .9-.7 1.6-1.6 1.6s-1.6-.7-1.6-1.6c0-.9.7-1.6 1.6-1.6.8 0 1.6.7 1.6 1.6zm3.7 0c0 .9-.7 1.6-1.6 1.6-.9 0-1.6-.7-1.6-1.6 0-.9.7-1.6 1.6-1.6.9 0 1.6.7 1.6 1.6z"/><circle cx="77" cy="62.3" r="1.6"/><circle cx="80.8" cy="62.3" r="1.6"/><path d="M93.7 62.3c0 .9-.7 1.6-1.6 1.6s-1.6-.7-1.6-1.6c0-.9.7-1.6 1.6-1.6s1.6.7 1.6 1.6z"/><circle cx="103.4" cy="62.3" r="1.6"/><path d="M108.8 62.3c0 .9-.7 1.6-1.6 1.6-.9 0-1.6-.7-1.6-1.6 0-.9.7-1.6 1.6-1.6.9 0 1.6.7 1.6 1.6zm3.7 0c0 .9-.7 1.6-1.6 1.6s-1.6-.7-1.6-1.6c0-.9.7-1.6 1.6-1.6s1.6.7 1.6 1.6zm3.8 0c0 .9-.7 1.6-1.6 1.6-.9 0-1.6-.7-1.6-1.6 0-.9.7-1.6 1.6-1.6.9 0 1.6.7 1.6 1.6z"/><circle cx="118.5" cy="62.3" r="1.6"/><circle cx="122.3" cy="62.3" r="1.6"/><path d="M127.6 62.3c0 .9-.7 1.6-1.6 1.6s-1.6-.7-1.6-1.6c0-.9.7-1.6 1.6-1.6s1.6.7 1.6 1.6zM56 66.1c0 .9-.7 1.6-1.6 1.6s-1.6-.7-1.6-1.6.7-1.6 1.6-1.6 1.6.7 1.6 1.6zm3.7 0c0 .9-.7 1.6-1.6 1.6s-1.6-.7-1.6-1.6.7-1.6 1.6-1.6 1.6.7 1.6 1.6z"/><circle cx="61.9" cy="66.1" r="1.6"/><path d="M67.3 66.1c0 .9-.7 1.6-1.6 1.6-.9 0-1.6-.7-1.6-1.6s.7-1.6 1.6-1.6c.9 0 1.6.7 1.6 1.6zm3.8 0c0 .9-.7 1.6-1.6 1.6s-1.6-.7-1.6-1.6.7-1.6 1.6-1.6c.8 0 1.6.7 1.6 1.6zm11.3 0c0 .9-.7 1.6-1.6 1.6-.9 0-1.6-.7-1.6-1.6s.7-1.6 1.6-1.6c.9 0 1.6.7 1.6 1.6zm11.3 0c0 .9-.7 1.6-1.6 1.6s-1.6-.7-1.6-1.6.7-1.6 1.6-1.6 1.6.7 1.6 1.6z"/><circle cx="103.4" cy="66.1" r="1.6"/><path d="M108.8 66.1c0 .9-.7 1.6-1.6 1.6-.9 0-1.6-.7-1.6-1.6s.7-1.6 1.6-1.6c.9 0 1.6.7 1.6 1.6zm3.7 0c0 .9-.7 1.6-1.6 1.6s-1.6-.7-1.6-1.6.7-1.6 1.6-1.6 1.6.7 1.6 1.6zm3.8 0c0 .9-.7 1.6-1.6 1.6-.9 0-1.6-.7-1.6-1.6s.7-1.6 1.6-1.6c.9 0 1.6.7 1.6 1.6z"/><circle cx="118.5" cy="66.1" r="1.6"/><circle cx="122.3" cy="66.1" r="1.6"/><path d="M56 69.9c0 .9-.7 1.6-1.6 1.6s-1.6-.7-1.6-1.6.7-1.6 1.6-1.6 1.6.7 1.6 1.6zm3.7 0c0 .9-.7 1.6-1.6 1.6s-1.6-.7-1.6-1.6.7-1.6 1.6-1.6 1.6.7 1.6 1.6zm3.8 0c0 .9-.7 1.6-1.6 1.6s-1.6-.7-1.6-1.6.7-1.6 1.6-1.6 1.6.7 1.6 1.6zm3.8 0c0 .9-.7 1.6-1.6 1.6-.9 0-1.6-.7-1.6-1.6s.7-1.6 1.6-1.6c.9 0 1.6.7 1.6 1.6zm3.8 0c0 .9-.7 1.6-1.6 1.6s-1.6-.7-1.6-1.6.7-1.6 1.6-1.6c.8 0 1.6.7 1.6 1.6zm11.3 0c0 .9-.7 1.6-1.6 1.6-.9 0-1.6-.7-1.6-1.6s.7-1.6 1.6-1.6c.9 0 1.6.7 1.6 1.6zm11.3 0c0 .9-.7 1.6-1.6 1.6s-1.6-.7-1.6-1.6.7-1.6 1.6-1.6 1.6.7 1.6 1.6zm11.3 0c0 .9-.7 1.6-1.6 1.6s-1.6-.7-1.6-1.6.7-1.6 1.6-1.6 1.6.7 1.6 1.6zm3.8 0c0 .9-.7 1.6-1.6 1.6-.9 0-1.6-.7-1.6-1.6s.7-1.6 1.6-1.6c.9 0 1.6.7 1.6 1.6zm3.7 0c0 .9-.7 1.6-1.6 1.6s-1.6-.7-1.6-1.6.7-1.6 1.6-1.6 1.6.7 1.6 1.6zm3.8 0c0 .9-.7 1.6-1.6 1.6-.9 0-1.6-.7-1.6-1.6s.7-1.6 1.6-1.6c.9 0 1.6.7 1.6 1.6zm3.8 0c0 .9-.7 1.6-1.6 1.6s-1.6-.7-1.6-1.6.7-1.6 1.6-1.6 1.6.7 1.6 1.6zm-67.9 3.8c0 .9-.7 1.6-1.6 1.6s-1.6-.7-1.6-1.6c0-.9.7-1.6 1.6-1.6s1.6.7 1.6 1.6zm3.8 0c0 .9-.7 1.6-1.6 1.6s-1.6-.7-1.6-1.6c0-.9.7-1.6 1.6-1.6s1.6.7 1.6 1.6zm3.7 0c0 .9-.7 1.6-1.6 1.6s-1.6-.7-1.6-1.6c0-.9.7-1.6 1.6-1.6s1.6.7 1.6 1.6zm11.4 0c0 .9-.7 1.6-1.6 1.6s-1.6-.7-1.6-1.6c0-.9.7-1.6 1.6-1.6.8 0 1.6.7 1.6 1.6zm11.3 0c0 .9-.7 1.6-1.6 1.6-.9 0-1.6-.7-1.6-1.6 0-.9.7-1.6 1.6-1.6.9 0 1.6.7 1.6 1.6zm11.3 0c0 .9-.7 1.6-1.6 1.6s-1.6-.7-1.6-1.6c0-.9.7-1.6 1.6-1.6s1.6.7 1.6 1.6zm11.3 0c0 .9-.7 1.6-1.6 1.6s-1.6-.7-1.6-1.6c0-.9.7-1.6 1.6-1.6s1.6.7 1.6 1.6zm3.8 0c0 .9-.7 1.6-1.6 1.6-.9 0-1.6-.7-1.6-1.6 0-.9.7-1.6 1.6-1.6.9 0 1.6.7 1.6 1.6zm3.7 0c0 .9-.7 1.6-1.6 1.6s-1.6-.7-1.6-1.6c0-.9.7-1.6 1.6-1.6s1.6.7 1.6 1.6zm3.8 0c0 .9-.7 1.6-1.6 1.6-.9 0-1.6-.7-1.6-1.6 0-.9.7-1.6 1.6-1.6.9 0 1.6.7 1.6 1.6zM56 77.5c0 .9-.7 1.6-1.6 1.6s-1.6-.7-1.6-1.6.7-1.6 1.6-1.6 1.6.7 1.6 1.6zm3.7 0c0 .9-.7 1.6-1.6 1.6s-1.6-.7-1.6-1.6.7-1.6 1.6-1.6 1.6.7 1.6 1.6zm11.4 0c0 .9-.7 1.6-1.6 1.6s-1.6-.7-1.6-1.6.7-1.6 1.6-1.6c.8 0 1.6.7 1.6 1.6z"/><circle cx="80.8" cy="77.5" r="1.6"/><path d="M93.7 77.5c0 .9-.7 1.6-1.6 1.6s-1.6-.7-1.6-1.6.7-1.6 1.6-1.6 1.6.7 1.6 1.6z"/><circle cx="103.4" cy="77.5" r="1.6"/><path d="M108.8 77.5c0 .9-.7 1.6-1.6 1.6-.9 0-1.6-.7-1.6-1.6s.7-1.6 1.6-1.6c.9 0 1.6.7 1.6 1.6zm3.7 0c0 .9-.7 1.6-1.6 1.6s-1.6-.7-1.6-1.6.7-1.6 1.6-1.6 1.6.7 1.6 1.6zm-52.8 3.8c0 .9-.7 1.6-1.6 1.6s-1.6-.7-1.6-1.6c0-.9.7-1.6 1.6-1.6s1.6.7 1.6 1.6zm11.4 0c0 .9-.7 1.6-1.6 1.6s-1.6-.7-1.6-1.6c0-.9.7-1.6 1.6-1.6.8 0 1.6.7 1.6 1.6zm11.3 0c0 .9-.7 1.6-1.6 1.6-.9 0-1.6-.7-1.6-1.6 0-.9.7-1.6 1.6-1.6.9 0 1.6.7 1.6 1.6zm11.3 0c0 .9-.7 1.6-1.6 1.6s-1.6-.7-1.6-1.6c0-.9.7-1.6 1.6-1.6s1.6.7 1.6 1.6zm11.3 0c0 .9-.7 1.6-1.6 1.6s-1.6-.7-1.6-1.6c0-.9.7-1.6 1.6-1.6s1.6.7 1.6 1.6zm3.8 0c0 .9-.7 1.6-1.6 1.6-.9 0-1.6-.7-1.6-1.6 0-.9.7-1.6 1.6-1.6.9 0 1.6.7 1.6 1.6zM59.7 85c0 .9-.7 1.6-1.6 1.6s-1.6-.7-1.6-1.6.7-1.6 1.6-1.6c.9.1 1.6.8 1.6 1.6zm3.8 0c0 .9-.7 1.6-1.6 1.6s-1.6-.7-1.6-1.6.7-1.6 1.6-1.6c.9.1 1.6.8 1.6 1.6zm3.8 0c0 .9-.7 1.6-1.6 1.6-.9 0-1.6-.7-1.6-1.6s.7-1.6 1.6-1.6c.9.1 1.6.8 1.6 1.6zm3.8 0c0 .9-.7 1.6-1.6 1.6s-1.6-.7-1.6-1.6.7-1.6 1.6-1.6c.8.1 1.6.8 1.6 1.6zm3.7 0c0 .9-.7 1.6-1.6 1.6-.9 0-1.6-.7-1.6-1.6s.7-1.6 1.6-1.6c.9.1 1.6.8 1.6 1.6zm3.8 0c0 .9-.7 1.6-1.6 1.6s-1.6-.7-1.6-1.6.7-1.6 1.6-1.6c.9.1 1.6.8 1.6 1.6zm3.8 0c0 .9-.7 1.6-1.6 1.6-.9 0-1.6-.7-1.6-1.6s.7-1.6 1.6-1.6c.9.1 1.6.8 1.6 1.6zm3.7 0c0 .9-.7 1.6-1.6 1.6s-1.6-.7-1.6-1.6.7-1.6 1.6-1.6c.9.1 1.6.8 1.6 1.6zm3.8 0c0 .9-.7 1.6-1.6 1.6-.9 0-1.6-.7-1.6-1.6s.7-1.6 1.6-1.6c.9 0 1.6.8 1.6 1.6zm3.8 0c0 .9-.7 1.6-1.6 1.6s-1.6-.7-1.6-1.6.7-1.6 1.6-1.6c.9.1 1.6.8 1.6 1.6zm3.8 0c0 .9-.7 1.6-1.6 1.6s-1.6-.7-1.6-1.6.7-1.6 1.6-1.6c.8.1 1.6.8 1.6 1.6zm3.7 0c0 .9-.7 1.6-1.6 1.6S98 85.9 98 85s.7-1.6 1.6-1.6c.9.1 1.6.8 1.6 1.6zm3.8 0c0 .9-.7 1.6-1.6 1.6s-1.6-.7-1.6-1.6.7-1.6 1.6-1.6c.9.1 1.6.8 1.6 1.6zm3.8 0c0 .9-.7 1.6-1.6 1.6-.9 0-1.6-.7-1.6-1.6s.7-1.6 1.6-1.6c.9.1 1.6.8 1.6 1.6zm-45.3 3.8c0 .9-.7 1.6-1.6 1.6s-1.6-.7-1.6-1.6c0-.9.7-1.6 1.6-1.6s1.6.8 1.6 1.6zm3.8 0c0 .9-.7 1.6-1.6 1.6-.9 0-1.6-.7-1.6-1.6 0-.9.7-1.6 1.6-1.6.9 0 1.6.8 1.6 1.6zm3.8 0c0 .9-.7 1.6-1.6 1.6s-1.6-.7-1.6-1.6c0-.9.7-1.6 1.6-1.6.8 0 1.6.8 1.6 1.6zm3.7 0c0 .9-.7 1.6-1.6 1.6-.9 0-1.6-.7-1.6-1.6 0-.9.7-1.6 1.6-1.6.9 0 1.6.8 1.6 1.6zm3.8 0c0 .9-.7 1.6-1.6 1.6s-1.6-.7-1.6-1.6c0-.9.7-1.6 1.6-1.6s1.6.8 1.6 1.6zm3.8 0c0 .9-.7 1.6-1.6 1.6-.9 0-1.6-.7-1.6-1.6 0-.9.7-1.6 1.6-1.6.9 0 1.6.8 1.6 1.6zm3.7 0c0 .9-.7 1.6-1.6 1.6s-1.6-.7-1.6-1.6c0-.9.7-1.6 1.6-1.6s1.6.8 1.6 1.6zm3.8 0c0 .9-.7 1.6-1.6 1.6-.9 0-1.6-.7-1.6-1.6 0-.9.7-1.6 1.6-1.6.9 0 1.6.8 1.6 1.6zm3.8 0c0 .9-.7 1.6-1.6 1.6s-1.6-.7-1.6-1.6c0-.9.7-1.6 1.6-1.6s1.6.8 1.6 1.6zm3.8 0c0 .9-.7 1.6-1.6 1.6s-1.6-.7-1.6-1.6c0-.9.7-1.6 1.6-1.6.8 0 1.6.8 1.6 1.6zm3.7 0c0 .9-.7 1.6-1.6 1.6s-1.6-.7-1.6-1.6c0-.9.7-1.6 1.6-1.6s1.6.8 1.6 1.6zm3.8 0c0 .9-.7 1.6-1.6 1.6s-1.6-.7-1.6-1.6c0-.9.7-1.6 1.6-1.6s1.6.8 1.6 1.6zm3.8 0c0 .9-.7 1.6-1.6 1.6-.9 0-1.6-.7-1.6-1.6 0-.9.7-1.6 1.6-1.6.9 0 1.6.8 1.6 1.6zm3.7 0c0 .9-.7 1.6-1.6 1.6s-1.6-.7-1.6-1.6c0-.9.7-1.6 1.6-1.6s1.6.8 1.6 1.6z"/><circle cx="61.9" cy="92.6" r="1.6"/><path d="M67.3 92.6c0 .9-.7 1.6-1.6 1.6-.9 0-1.6-.7-1.6-1.6 0-.9.7-1.6 1.6-1.6.9 0 1.6.7 1.6 1.6zm3.8 0c0 .9-.7 1.6-1.6 1.6s-1.6-.7-1.6-1.6c0-.9.7-1.6 1.6-1.6.8 0 1.6.7 1.6 1.6zm3.7 0c0 .9-.7 1.6-1.6 1.6-.9 0-1.6-.7-1.6-1.6 0-.9.7-1.6 1.6-1.6.9 0 1.6.7 1.6 1.6z"/><circle cx="77" cy="92.6" r="1.6"/><circle cx="80.8" cy="92.6" r="1.6"/><circle cx="84.6" cy="92.6" r="1.6"/><circle cx="88.3" cy="92.6" r="1.6"/><path d="M93.7 92.6c0 .9-.7 1.6-1.6 1.6s-1.6-.7-1.6-1.6c0-.9.7-1.6 1.6-1.6s1.6.7 1.6 1.6z"/><circle cx="95.9" cy="92.6" r="1.6"/><path d="M101.2 92.6c0 .9-.7 1.6-1.6 1.6s-1.6-.7-1.6-1.6c0-.9.7-1.6 1.6-1.6s1.6.7 1.6 1.6z"/><circle cx="103.4" cy="92.6" r="1.6"/><path d="M108.8 92.6c0 .9-.7 1.6-1.6 1.6-.9 0-1.6-.7-1.6-1.6 0-.9.7-1.6 1.6-1.6.9 0 1.6.7 1.6 1.6zm3.7 0c0 .9-.7 1.6-1.6 1.6s-1.6-.7-1.6-1.6c0-.9.7-1.6 1.6-1.6s1.6.7 1.6 1.6zm-52.8 3.8c0 .9-.7 1.6-1.6 1.6s-1.6-.7-1.6-1.6c0-.9.7-1.6 1.6-1.6s1.6.7 1.6 1.6z"/><circle cx="61.9" cy="96.4" r="1.6"/><path d="M67.3 96.4c0 .9-.7 1.6-1.6 1.6-.9 0-1.6-.7-1.6-1.6 0-.9.7-1.6 1.6-1.6.9 0 1.6.7 1.6 1.6zm3.8 0c0 .9-.7 1.6-1.6 1.6s-1.6-.7-1.6-1.6c0-.9.7-1.6 1.6-1.6.8 0 1.6.7 1.6 1.6zm3.7 0c0 .9-.7 1.6-1.6 1.6-.9 0-1.6-.7-1.6-1.6 0-.9.7-1.6 1.6-1.6.9 0 1.6.7 1.6 1.6z"/><circle cx="77" cy="96.4" r="1.6"/><circle cx="80.8" cy="96.4" r="1.6"/><circle cx="84.6" cy="96.4" r="1.6"/><circle cx="88.3" cy="96.4" r="1.6"/><path d="M93.7 96.4c0 .9-.7 1.6-1.6 1.6s-1.6-.7-1.6-1.6c0-.9.7-1.6 1.6-1.6s1.6.7 1.6 1.6z"/><circle cx="95.9" cy="96.4" r="1.6"/><path d="M101.2 96.4c0 .9-.7 1.6-1.6 1.6s-1.6-.7-1.6-1.6c0-.9.7-1.6 1.6-1.6s1.6.7 1.6 1.6z"/><circle cx="103.4" cy="96.4" r="1.6"/><path d="M108.8 96.4c0 .9-.7 1.6-1.6 1.6-.9 0-1.6-.7-1.6-1.6 0-.9.7-1.6 1.6-1.6.9 0 1.6.7 1.6 1.6zm3.7 0c0 .9-.7 1.6-1.6 1.6s-1.6-.7-1.6-1.6c0-.9.7-1.6 1.6-1.6s1.6.7 1.6 1.6zm-52.8 3.8c0 .9-.7 1.6-1.6 1.6s-1.6-.7-1.6-1.6c0-.9.7-1.6 1.6-1.6s1.6.7 1.6 1.6z"/><circle cx="61.9" cy="100.2" r="1.6"/><path d="M67.3 100.2c0 .9-.7 1.6-1.6 1.6-.9 0-1.6-.7-1.6-1.6 0-.9.7-1.6 1.6-1.6.9 0 1.6.7 1.6 1.6zm3.8 0c0 .9-.7 1.6-1.6 1.6s-1.6-.7-1.6-1.6c0-.9.7-1.6 1.6-1.6.8 0 1.6.7 1.6 1.6zm3.7 0c0 .9-.7 1.6-1.6 1.6-.9 0-1.6-.7-1.6-1.6 0-.9.7-1.6 1.6-1.6.9 0 1.6.7 1.6 1.6z"/><circle cx="77" cy="100.2" r="1.6"/><circle cx="80.8" cy="100.2" r="1.6"/><circle cx="84.6" cy="100.2" r="1.6"/><circle cx="88.3" cy="100.2" r="1.6"/><path d="M93.7 100.2c0 .9-.7 1.6-1.6 1.6s-1.6-.7-1.6-1.6c0-.9.7-1.6 1.6-1.6s1.6.7 1.6 1.6z"/><circle cx="95.9" cy="100.2" r="1.6"/><path d="M101.2 100.2c0 .9-.7 1.6-1.6 1.6s-1.6-.7-1.6-1.6c0-.9.7-1.6 1.6-1.6s1.6.7 1.6 1.6z"/><circle cx="103.4" cy="100.2" r="1.6"/><path d="M108.8 100.2c0 .9-.7 1.6-1.6 1.6-.9 0-1.6-.7-1.6-1.6 0-.9.7-1.6 1.6-1.6.9 0 1.6.7 1.6 1.6zm3.7 0c0 .9-.7 1.6-1.6 1.6s-1.6-.7-1.6-1.6c0-.9.7-1.6 1.6-1.6s1.6.7 1.6 1.6zM59.7 104c0 .9-.7 1.6-1.6 1.6s-1.6-.7-1.6-1.6.7-1.6 1.6-1.6 1.6.7 1.6 1.6z"/><circle cx="61.9" cy="104" r="1.6"/><path d="M67.3 104c0 .9-.7 1.6-1.6 1.6-.9 0-1.6-.7-1.6-1.6s.7-1.6 1.6-1.6c.9 0 1.6.7 1.6 1.6zm3.8 0c0 .9-.7 1.6-1.6 1.6s-1.6-.7-1.6-1.6.7-1.6 1.6-1.6c.8 0 1.6.7 1.6 1.6zm3.7 0c0 .9-.7 1.6-1.6 1.6-.9 0-1.6-.7-1.6-1.6s.7-1.6 1.6-1.6c.9 0 1.6.7 1.6 1.6z"/><circle cx="77" cy="104" r="1.6"/><circle cx="80.8" cy="104" r="1.6"/><circle cx="84.6" cy="104" r="1.6"/><circle cx="88.3" cy="104" r="1.6"/><path d="M93.7 104c0 .9-.7 1.6-1.6 1.6s-1.6-.7-1.6-1.6.7-1.6 1.6-1.6 1.6.7 1.6 1.6z"/><circle cx="95.9" cy="104" r="1.6"/><path d="M101.2 104c0 .9-.7 1.6-1.6 1.6s-1.6-.7-1.6-1.6.7-1.6 1.6-1.6 1.6.7 1.6 1.6z"/><circle cx="103.4" cy="104" r="1.6"/><path d="M108.8 104c0 .9-.7 1.6-1.6 1.6-.9 0-1.6-.7-1.6-1.6s.7-1.6 1.6-1.6c.9 0 1.6.7 1.6 1.6zm3.7 0c0 .9-.7 1.6-1.6 1.6s-1.6-.7-1.6-1.6.7-1.6 1.6-1.6 1.6.7 1.6 1.6z"/><circle cx="61.9" cy="107.8" r="1.6"/><path d="M67.3 107.8c0 .9-.7 1.6-1.6 1.6-.9 0-1.6-.7-1.6-1.6 0-.9.7-1.6 1.6-1.6.9 0 1.6.7 1.6 1.6zm3.8 0c0 .9-.7 1.6-1.6 1.6s-1.6-.7-1.6-1.6c0-.9.7-1.6 1.6-1.6.8 0 1.6.7 1.6 1.6zm3.7 0c0 .9-.7 1.6-1.6 1.6-.9 0-1.6-.7-1.6-1.6 0-.9.7-1.6 1.6-1.6.9 0 1.6.7 1.6 1.6z"/><circle cx="77" cy="107.8" r="1.6"/><circle cx="80.8" cy="107.8" r="1.6"/><circle cx="84.6" cy="107.8" r="1.6"/><circle cx="88.3" cy="107.8" r="1.6"/><path d="M93.7 107.8c0 .9-.7 1.6-1.6 1.6s-1.6-.7-1.6-1.6c0-.9.7-1.6 1.6-1.6s1.6.7 1.6 1.6z"/><circle cx="95.9" cy="107.8" r="1.6"/><path d="M101.2 107.8c0 .9-.7 1.6-1.6 1.6s-1.6-.7-1.6-1.6c0-.9.7-1.6 1.6-1.6s1.6.7 1.6 1.6z"/><circle cx="103.4" cy="107.8" r="1.6"/><circle cx="61.9" cy="111.6" r="1.6"/><path d="M67.3 111.6c0 .9-.7 1.6-1.6 1.6-.9 0-1.6-.7-1.6-1.6 0-.9.7-1.6 1.6-1.6.9 0 1.6.7 1.6 1.6zm3.8 0c0 .9-.7 1.6-1.6 1.6s-1.6-.7-1.6-1.6c0-.9.7-1.6 1.6-1.6.8 0 1.6.7 1.6 1.6zm3.7 0c0 .9-.7 1.6-1.6 1.6-.9 0-1.6-.7-1.6-1.6 0-.9.7-1.6 1.6-1.6.9 0 1.6.7 1.6 1.6z"/><circle cx="77" cy="111.6" r="1.6"/><circle cx="80.8" cy="111.6" r="1.6"/><circle cx="84.6" cy="111.6" r="1.6"/><circle cx="88.3" cy="111.6" r="1.6"/><path d="M93.7 111.6c0 .9-.7 1.6-1.6 1.6s-1.6-.7-1.6-1.6c0-.9.7-1.6 1.6-1.6s1.6.7 1.6 1.6z"/><circle cx="95.9" cy="111.6" r="1.6"/><path d="M101.2 111.6c0 .9-.7 1.6-1.6 1.6s-1.6-.7-1.6-1.6c0-.9.7-1.6 1.6-1.6s1.6.7 1.6 1.6zm-33.9 3.7c0 .9-.7 1.6-1.6 1.6-.9 0-1.6-.7-1.6-1.6 0-.9.7-1.6 1.6-1.6.9.1 1.6.8 1.6 1.6zm3.8 0c0 .9-.7 1.6-1.6 1.6s-1.6-.7-1.6-1.6c0-.9.7-1.6 1.6-1.6.8.1 1.6.8 1.6 1.6zm3.7 0c0 .9-.7 1.6-1.6 1.6-.9 0-1.6-.7-1.6-1.6 0-.9.7-1.6 1.6-1.6.9.1 1.6.8 1.6 1.6z"/><circle cx="77" cy="115.3" r="1.6"/><circle cx="80.8" cy="115.3" r="1.6"/><circle cx="84.6" cy="115.3" r="1.6"/><circle cx="88.3" cy="115.3" r="1.6"/><path d="M93.7 115.3c0 .9-.7 1.6-1.6 1.6s-1.6-.7-1.6-1.6c0-.9.7-1.6 1.6-1.6.9.1 1.6.8 1.6 1.6z"/><circle cx="95.9" cy="115.3" r="1.6"/><path d="M101.2 115.3c0 .9-.7 1.6-1.6 1.6s-1.6-.7-1.6-1.6c0-.9.7-1.6 1.6-1.6.9.1 1.6.8 1.6 1.6zm-33.9 3.8c0 .9-.7 1.6-1.6 1.6-.9 0-1.6-.7-1.6-1.6 0-.9.7-1.6 1.6-1.6.9 0 1.6.8 1.6 1.6zm3.8 0c0 .9-.7 1.6-1.6 1.6s-1.6-.7-1.6-1.6c0-.9.7-1.6 1.6-1.6.8 0 1.6.8 1.6 1.6zm3.7 0c0 .9-.7 1.6-1.6 1.6-.9 0-1.6-.7-1.6-1.6 0-.9.7-1.6 1.6-1.6.9 0 1.6.8 1.6 1.6zm3.8 0c0 .9-.7 1.6-1.6 1.6s-1.6-.7-1.6-1.6c0-.9.7-1.6 1.6-1.6s1.6.8 1.6 1.6zm3.8 0c0 .9-.7 1.6-1.6 1.6-.9 0-1.6-.7-1.6-1.6 0-.9.7-1.6 1.6-1.6.9 0 1.6.8 1.6 1.6zm3.7 0c0 .9-.7 1.6-1.6 1.6s-1.6-.7-1.6-1.6c0-.9.7-1.6 1.6-1.6s1.6.8 1.6 1.6zm3.8 0c0 .9-.7 1.6-1.6 1.6-.9 0-1.6-.7-1.6-1.6 0-.9.7-1.6 1.6-1.6.9 0 1.6.8 1.6 1.6zm3.8 0c0 .9-.7 1.6-1.6 1.6s-1.6-.7-1.6-1.6c0-.9.7-1.6 1.6-1.6s1.6.8 1.6 1.6zm3.8 0c0 .9-.7 1.6-1.6 1.6s-1.6-.7-1.6-1.6c0-.9.7-1.6 1.6-1.6.8 0 1.6.8 1.6 1.6zm3.7 0c0 .9-.7 1.6-1.6 1.6s-1.6-.7-1.6-1.6c0-.9.7-1.6 1.6-1.6s1.6.8 1.6 1.6zm-33.9 3.8c0 .9-.7 1.6-1.6 1.6-.9 0-1.6-.7-1.6-1.6 0-.9.7-1.6 1.6-1.6.9 0 1.6.7 1.6 1.6zm3.8 0c0 .9-.7 1.6-1.6 1.6s-1.6-.7-1.6-1.6c0-.9.7-1.6 1.6-1.6.8 0 1.6.7 1.6 1.6zm3.7 0c0 .9-.7 1.6-1.6 1.6-.9 0-1.6-.7-1.6-1.6 0-.9.7-1.6 1.6-1.6.9 0 1.6.7 1.6 1.6z"/><circle cx="77" cy="122.9" r="1.6"/><circle cx="80.8" cy="122.9" r="1.6"/><circle cx="84.6" cy="122.9" r="1.6"/><circle cx="88.3" cy="122.9" r="1.6"/><path d="M93.7 122.9c0 .9-.7 1.6-1.6 1.6s-1.6-.7-1.6-1.6c0-.9.7-1.6 1.6-1.6s1.6.7 1.6 1.6zm3.8 0c0 .9-.7 1.6-1.6 1.6s-1.6-.7-1.6-1.6c0-.9.7-1.6 1.6-1.6.8 0 1.6.7 1.6 1.6zm-26.4 3.8c0 .9-.7 1.6-1.6 1.6s-1.6-.7-1.6-1.6c0-.9.7-1.6 1.6-1.6.8 0 1.6.7 1.6 1.6zm3.7 0c0 .9-.7 1.6-1.6 1.6-.9 0-1.6-.7-1.6-1.6 0-.9.7-1.6 1.6-1.6.9 0 1.6.7 1.6 1.6zm3.8 0c0 .9-.7 1.6-1.6 1.6s-1.6-.7-1.6-1.6c0-.9.7-1.6 1.6-1.6s1.6.7 1.6 1.6zm3.8 0c0 .9-.7 1.6-1.6 1.6-.9 0-1.6-.7-1.6-1.6 0-.9.7-1.6 1.6-1.6.9 0 1.6.7 1.6 1.6zm3.7 0c0 .9-.7 1.6-1.6 1.6s-1.6-.7-1.6-1.6c0-.9.7-1.6 1.6-1.6s1.6.7 1.6 1.6zm3.8 0c0 .9-.7 1.6-1.6 1.6-.9 0-1.6-.7-1.6-1.6 0-.9.7-1.6 1.6-1.6.9 0 1.6.7 1.6 1.6zm3.8 0c0 .9-.7 1.6-1.6 1.6s-1.6-.7-1.6-1.6c0-.9.7-1.6 1.6-1.6s1.6.7 1.6 1.6zm3.8 0c0 .9-.7 1.6-1.6 1.6s-1.6-.7-1.6-1.6c0-.9.7-1.6 1.6-1.6.8 0 1.6.7 1.6 1.6zm-26.4 3.8c0 .9-.7 1.6-1.6 1.6s-1.6-.7-1.6-1.6.7-1.6 1.6-1.6c.8 0 1.6.7 1.6 1.6zm3.7 0c0 .9-.7 1.6-1.6 1.6-.9 0-1.6-.7-1.6-1.6s.7-1.6 1.6-1.6c.9 0 1.6.7 1.6 1.6zm3.8 0c0 .9-.7 1.6-1.6 1.6s-1.6-.7-1.6-1.6.7-1.6 1.6-1.6 1.6.7 1.6 1.6zm3.8 0c0 .9-.7 1.6-1.6 1.6-.9 0-1.6-.7-1.6-1.6s.7-1.6 1.6-1.6c.9 0 1.6.7 1.6 1.6zm3.7 0c0 .9-.7 1.6-1.6 1.6s-1.6-.7-1.6-1.6.7-1.6 1.6-1.6 1.6.7 1.6 1.6zm3.8 0c0 .9-.7 1.6-1.6 1.6-.9 0-1.6-.7-1.6-1.6s.7-1.6 1.6-1.6c.9 0 1.6.7 1.6 1.6zm3.8 0c0 .9-.7 1.6-1.6 1.6s-1.6-.7-1.6-1.6.7-1.6 1.6-1.6 1.6.7 1.6 1.6zm-22.6 3.7c0 .9-.7 1.6-1.6 1.6s-1.6-.7-1.6-1.6c0-.9.7-1.6 1.6-1.6.8 0 1.6.7 1.6 1.6zm3.7 0c0 .9-.7 1.6-1.6 1.6-.9 0-1.6-.7-1.6-1.6 0-.9.7-1.6 1.6-1.6.9 0 1.6.7 1.6 1.6zm3.8 0c0 .9-.7 1.6-1.6 1.6s-1.6-.7-1.6-1.6c0-.9.7-1.6 1.6-1.6s1.6.7 1.6 1.6zm3.8 0c0 .9-.7 1.6-1.6 1.6-.9 0-1.6-.7-1.6-1.6 0-.9.7-1.6 1.6-1.6.9 0 1.6.7 1.6 1.6zm3.7 0c0 .9-.7 1.6-1.6 1.6s-1.6-.7-1.6-1.6c0-.9.7-1.6 1.6-1.6s1.6.7 1.6 1.6zm3.8 0c0 .9-.7 1.6-1.6 1.6-.9 0-1.6-.7-1.6-1.6 0-.9.7-1.6 1.6-1.6.9 0 1.6.7 1.6 1.6zM71.1 138c0 .9-.7 1.6-1.6 1.6s-1.6-.7-1.6-1.6.7-1.6 1.6-1.6c.8 0 1.6.7 1.6 1.6zm3.7 0c0 .9-.7 1.6-1.6 1.6-.9 0-1.6-.7-1.6-1.6s.7-1.6 1.6-1.6c.9 0 1.6.7 1.6 1.6zm3.8 0c0 .9-.7 1.6-1.6 1.6s-1.6-.7-1.6-1.6.7-1.6 1.6-1.6 1.6.7 1.6 1.6zm3.8 0c0 .9-.7 1.6-1.6 1.6-.9 0-1.6-.7-1.6-1.6s.7-1.6 1.6-1.6c.9 0 1.6.7 1.6 1.6zm3.7 0c0 .9-.7 1.6-1.6 1.6s-1.6-.7-1.6-1.6.7-1.6 1.6-1.6 1.6.7 1.6 1.6z"/><circle cx="46.8" cy="5.5" r="1.6"/><circle cx="46.8" cy="9.3" r="1.6"/><path d="M59.7 9.3c0 .9-.7 1.6-1.6 1.6s-1.6-.7-1.6-1.6c0-.9.7-1.6 1.6-1.6s1.6.7 1.6 1.6z"/><circle cx="46.8" cy="13.1" r="1.6"/><path d="M59.7 13.1c0 .9-.7 1.6-1.6 1.6s-1.6-.7-1.6-1.6.7-1.6 1.6-1.6 1.6.7 1.6 1.6z"/><circle cx="50.6" cy="16.9" r="1.6"/><path d="M56 16.9c0 .9-.7 1.6-1.6 1.6s-1.6-.7-1.6-1.6.7-1.6 1.6-1.6 1.6.7 1.6 1.6zm-3.8 3.8c0 .9-.7 1.6-1.6 1.6s-1.6-.7-1.6-1.6c0-.9.7-1.6 1.6-1.6s1.6.7 1.6 1.6zm3.8 0c0 .9-.7 1.6-1.6 1.6s-1.6-.7-1.6-1.6c0-.9.7-1.6 1.6-1.6s1.6.7 1.6 1.6zm-3.8 3.7c0 .9-.7 1.6-1.6 1.6s-1.6-.7-1.6-1.6.7-1.6 1.6-1.6c.9.1 1.6.8 1.6 1.6zm3.8 0c0 .9-.7 1.6-1.6 1.6s-1.6-.7-1.6-1.6.7-1.6 1.6-1.6c.9.1 1.6.8 1.6 1.6zm-3.8 3.8c0 .9-.7 1.6-1.6 1.6s-1.6-.7-1.6-1.6c0-.9.7-1.6 1.6-1.6s1.6.8 1.6 1.6zm3.8 0c0 .9-.7 1.6-1.6 1.6s-1.6-.7-1.6-1.6c0-.9.7-1.6 1.6-1.6s1.6.8 1.6 1.6z"/></g><g><path fill="#1D70B6" d="M124.4 137.8v-7.4c0-.4.2-.7.6-.7h2.9c2.4 0 4.1 2 4.1 4.4 0 2.4-1.7 4.4-4.1 4.4H125c-.4 0-.6-.2-.6-.7m3.3-1.2c1.4 0 2.3-1 2.3-2.4s-.9-2.4-2.3-2.4h-1.1v4.8h1.1zM137.7 131.7v1.6h2.4c.4 0 .6.2.6.7v.4c0 .4-.2.7-.6.7h-2.4v1.5h2.9c.4 0 .6.2.6.7v.6c0 .4-.2.7-.6.7h-4.4c-.4 0-.6-.2-.6-.7v-7.4c0-.4.2-.7.6-.7h4.4c.4 0 .6.2.6.7v.6c0 .4-.2.7-.6.7h-2.9zM146.9 138l-2.4-7.4c-.2-.5 0-.8.5-.8h1c.4 0 .6.2.7.6l1.4 5.1 1.4-5.1c.1-.4.3-.6.7-.6h1c.5 0 .7.3.5.8l-2.5 7.4c-.1.4-.4.5-.7.5h-.8c-.4 0-.6-.2-.8-.5M157.3 131.7v1.6h2.4c.4 0 .6.2.6.7v.4c0 .4-.2.7-.6.7h-2.4v1.5h2.9c.4 0 .6.2.6.7v.6c0 .4-.2.7-.6.7h-4.4c-.4 0-.6-.2-.6-.7v-7.4c0-.4.2-.7.6-.7h4.4c.4 0 .6.2.6.7v.6c0 .4-.2.7-.6.7h-2.9zM164.5 137.8v-7.4c0-.4.2-.7.6-.7h.9c.4 0 .6.2.6.7v6.1h3c.4 0 .6.2.6.7v.6c0 .4-.2.7-.6.7h-4.5c-.4 0-.6-.2-.6-.7M172.9 134.1c0-2.5 1.7-4.5 4.3-4.5 2.6 0 4.3 2.1 4.3 4.5s-1.7 4.5-4.3 4.5c-2.5.1-4.3-2-4.3-4.5m6.6 0c0-1.4-.9-2.5-2.2-2.5-1.3 0-2.2 1.1-2.2 2.5s.9 2.5 2.2 2.5c1.3.1 2.2-1.1 2.2-2.5M191.7 132.8c0 1.6-1 2.9-2.8 2.9h-1.6v2.1c0 .4-.2.7-.6.7h-.9c-.4 0-.6-.2-.6-.7v-7.4c0-.4.2-.7.6-.7h3.2c1.7.1 2.7 1.5 2.7 3.1m-2.2 0c0-.6-.4-1.1-.9-1.1h-1.4v2.1h1.4c.6.1.9-.4.9-1M204.7 141.2v-11.8c0-.2.1-.3.3-.3h1c.2 0 .3.1.3.3v11.8c0 .2-.1.3-.3.3h-1c-.2 0-.3-.1-.3-.3M219.8 136.7c-.2-.4.1-.7.5-.8l.6-.1c.4-.1.6.1.8.4.3.4.7.7 1.3.7.7 0 1.1-.3 1.1-.8 0-.3-.2-.6-.8-.9l-1-.4c-.7-.2-2.2-.9-2.3-2.5 0-1.6 1.3-2.7 3-2.7 1.3 0 2.1.6 2.6 1.6.2.4 0 .7-.4.9l-.5.2c-.4.1-.6 0-.8-.4-.2-.3-.5-.4-.9-.4-.5 0-.9.2-.9.7 0 .3.2.6.8.8l1 .4c1.7.6 2.3 1.5 2.3 2.7 0 1.8-1.4 2.7-3.2 2.7-1.7-.1-2.8-.9-3.2-2.1M229.6 137.8v-7.4c0-.4.2-.7.6-.7h.9c.4 0 .6.2.6.7v2.9h2.7v-2.9c0-.4.2-.7.6-.7h.9c.4 0 .6.2.6.7v7.4c0 .4-.2.7-.6.7h-.9c-.4 0-.6-.2-.6-.7v-2.6h-2.7v2.6c0 .4-.2.7-.6.7h-.9c-.4 0-.6-.2-.6-.7M240 137.7l2.7-7.4c.1-.4.4-.5.7-.5h.9c.4 0 .6.2.7.5l2.7 7.4c.2.5 0 .8-.5.8h-.9c-.3 0-.6-.2-.7-.5l-.4-1h-2.8l-.3 1c-.1.4-.3.5-.7.5h-.9c-.5 0-.7-.3-.5-.8m4.8-2.5l-1-3-1 3h2zM257.6 132.8c0 1.6-1 2.9-2.8 2.9h-1.6v2.1c0 .4-.2.7-.6.7h-.9c-.4 0-.6-.2-.6-.7v-7.4c0-.4.2-.7.6-.7h3.2c1.8.1 2.7 1.5 2.7 3.1m-2.1 0c0-.6-.4-1.1-.9-1.1h-1.4v2.1h1.4c.5.1.9-.4.9-1M263.2 131.7v1.6h2.4c.4 0 .6.2.6.7v.4c0 .4-.2.7-.6.7h-2.4v1.5h2.9c.4 0 .6.2.6.7v.6c0 .4-.2.7-.6.7h-4.4c-.4 0-.6-.2-.6-.7v-7.4c0-.4.2-.7.6-.7h4.4c.4 0 .6.2.6.7v.6c0 .4-.2.7-.6.7h-2.9zM280.3 141.2v-11.8c0-.2.1-.3.3-.3h1c.2 0 .3.1.3.3v11.8c0 .2-.1.3-.3.3h-1c-.2 0-.3-.1-.3-.3M294.9 137.7l2.7-7.4c.1-.4.4-.5.7-.5h.9c.4 0 .6.2.7.5l2.7 7.4c.2.5 0 .8-.5.8h-.9c-.3 0-.6-.2-.7-.5l-.4-1h-2.8l-.3 1c-.1.4-.3.5-.7.5h-.9c-.5 0-.7-.3-.5-.8m4.8-2.5l-1-3-1 3h2zM306 137.8v-7.4c0-.4.2-.7.6-.7h2.9c2.4 0 4.1 2 4.1 4.4 0 2.4-1.7 4.4-4.1 4.4h-2.9c-.4 0-.6-.2-.6-.7m3.2-1.2c1.4 0 2.3-1 2.3-2.4s-.9-2.4-2.3-2.4h-1.1v4.8h1.1zM318.8 138l-2.4-7.4c-.2-.5 0-.8.5-.8h1c.4 0 .6.2.7.6l1.4 5.1 1.4-5.1c.1-.4.3-.6.7-.6h1c.5 0 .7.3.5.8L321 138c-.1.4-.4.5-.7.5h-.8c-.4 0-.6-.2-.7-.5M325.6 137.7l2.7-7.4c.1-.4.4-.5.7-.5h.9c.4 0 .6.2.7.5l2.7 7.4c.2.5 0 .8-.5.8h-.9c-.3 0-.6-.2-.7-.5l-.4-1H328l-.3 1c-.1.4-.3.5-.7.5h-.9c-.5 0-.7-.3-.5-.8m4.8-2.5l-1-3-1 3h2zM336.7 137.8v-7.4c0-.4.2-.7.6-.7h.5c.3 0 .6.1.8.4l2.8 4.2v-4c0-.4.2-.7.6-.7h.9c.4 0 .6.2.6.7v7.4c0 .4-.2.7-.6.7h-.5c-.3 0-.6-.1-.8-.4l-2.9-4.3v4c0 .4-.2.7-.6.7h-.9c-.3.1-.5-.1-.5-.6M347.1 134.1c0-2.4 1.8-4.5 4.5-4.5 1.1 0 1.8.3 2.5.9.3.2.4.6.1.9l-.4.5c-.3.3-.5.3-.9.1-.4-.3-.9-.4-1.4-.4-1.5 0-2.4 1.1-2.4 2.5s.9 2.5 2.4 2.5c.5 0 .9-.1 1.4-.4.3-.2.6-.2.9.1l.4.5c.3.3.3.7 0 .9-.7.5-1.5.9-2.6.9-2.8.1-4.5-2-4.5-4.5M360 131.7v1.6h2.4c.4 0 .6.2.6.7v.4c0 .4-.2.7-.6.7H360v1.5h2.9c.4 0 .6.2.6.7v.6c0 .4-.2.7-.6.7h-4.4c-.4 0-.6-.2-.6-.7v-7.4c0-.4.2-.7.6-.7h4.4c.4 0 .6.2.6.7v.6c0 .4-.2.7-.6.7H360z"/><path fill="none" stroke="#1D70B6" stroke-width="2" stroke-miterlimit="10" d="M125.7 119.3h236.4"/></g></svg>